<svg width="50" height="50" viewBox="0 0 50 50" fill="none" xmlns="http://www.w3.org/2000/svg">
<path d="M11.1117 21.1133C16.945 26.9466 21.945 31.9466 29.445 38.6133L34.5216 33.8279C35.2177 33.1318 36.3474 32.8716 37.3037 33.2185C40.435 34.1747 43.8241 34.7841 47.2179 34.7841C48.7836 34.7841 50 36.0029 50 37.5662V47.2179C50 48.7836 48.7812 50 47.2179 50C21.1316 50 0 28.8684 0 2.78208C0 1.21643 1.21642 0 2.78207 0H12.5205C13.9994 0 15.3026 1.21643 15.3026 2.78208C15.3026 6.26025 15.8252 9.56499 16.8682 12.6963C17.2151 13.6526 16.955 14.7823 16.1721 15.5651L12.5205 19.4466L11.1117 21.1133Z" fill="black"/>
<path fill-rule="evenodd" clip-rule="evenodd" d="M32.483 0.35099C27.7048 -1.01912 22.721 1.74346 21.3509 6.52161C20.4203 9.76681 21.3968 13.1072 23.6158 15.3456L24.7721 19.9862L27.2672 17.5767C27.3511 17.6033 27.4361 17.6292 27.5215 17.6537L33.2891 19.3075C38.0672 20.6776 43.051 17.9151 44.4212 13.1369C45.7913 8.35876 43.0287 3.37493 38.2505 2.00481L32.483 0.35099ZM35.1698 5.25699C35.3981 4.46066 34.9377 3.62999 34.1413 3.40164C33.345 3.1733 32.5143 3.63374 32.286 4.43008L31.3213 7.79449L27.9568 6.82976C27.1605 6.60142 26.3298 7.06187 26.1015 7.8582C25.8731 8.65454 26.3336 9.4852 27.1299 9.71355L30.4943 10.6783L29.5296 14.0427C29.3013 14.839 29.7617 15.6697 30.5581 15.898C31.3544 16.1264 32.1851 15.6659 32.4134 14.8696L33.3781 11.5052L36.7425 12.4699C37.5389 12.6983 38.3696 12.2378 38.5979 11.4415C38.8262 10.6452 38.3658 9.81448 37.5695 9.58614L34.205 8.62141L35.1698 5.25699Z" fill="black"/>
</svg>
