<svg width="112" height="64" viewBox="0 0 112 64" fill="none" xmlns="http://www.w3.org/2000/svg">
<path d="M101.645 31C101.645 42.0457 92.6902 51 81.6445 51C70.5988 51 61.6445 42.0457 61.6445 31C61.6445 19.9543 70.5988 11 81.6445 11C92.6902 11 101.645 19.9543 101.645 31Z" fill="black"/>
<path fill-rule="evenodd" clip-rule="evenodd" d="M21.4637 6.60547C16.2898 7.34067 11.3021 9.69815 7.32233 13.6779C-2.44078 23.441 -2.44078 39.2701 7.32233 49.0332C17.0854 58.7964 32.9146 58.7964 42.6777 49.0332C43.762 47.949 44.7258 46.7899 45.5693 45.5725C38.0506 46.6409 30.1387 44.2834 24.3553 38.5001C15.6765 29.8213 14.7126 16.349 21.4637 6.60547Z" fill="black"/>
<path d="M27.0489 10.927C27.3483 10.0057 28.6517 10.0057 28.9511 10.9271L29.5716 12.8369C29.7055 13.2489 30.0894 13.5279 30.5227 13.5279H32.5308C33.4995 13.5279 33.9023 14.7675 33.1186 15.3369L31.494 16.5172C31.1435 16.7719 30.9968 17.2232 31.1307 17.6353L31.7512 19.5451C32.0506 20.4664 30.9961 21.2325 30.2124 20.6631L28.5878 19.4828C28.2373 19.2281 27.7627 19.2281 27.4122 19.4828L25.7876 20.6631C25.0039 21.2325 23.9494 20.4664 24.2488 19.5451L24.8693 17.6353C25.0032 17.2232 24.8565 16.7719 24.506 16.5172L22.8814 15.3369C22.0977 14.7675 22.5005 13.5279 23.4692 13.5279H25.4773C25.9106 13.5279 26.2945 13.2489 26.4284 12.8369L27.0489 10.927Z" fill="black"/>
<line x1="59.7702" y1="0.380044" x2="47.6088" y2="63.214" stroke="black" stroke-width="4"/>
<path d="M80.0005 3.3729C80.7959 2.22488 82.4932 2.22488 83.2885 3.3729L84.6659 5.36101C85.5849 6.68741 84.6356 8.5 83.0219 8.5H80.2671C78.6535 8.5 77.7042 6.68741 78.6231 5.36101L80.0005 3.3729Z" fill="black"/>
<path d="M66.6048 6.78093C66.7439 5.39125 68.2283 4.56841 69.4805 5.18688L71.6491 6.25795C73.0959 6.97253 73.1443 9.01808 71.733 9.80039L69.3236 11.136C67.9123 11.9183 66.2032 10.7932 66.3639 9.18755L66.6048 6.78093Z" fill="black"/>
<path d="M97.0733 7.93072C98.4206 7.56254 99.7207 8.65351 99.5921 10.0442L99.3693 12.4526C99.2207 14.0593 97.3284 14.8377 96.0922 13.8004L93.9819 12.0297C92.7458 10.9924 93.1837 8.99371 94.7403 8.56833L97.0733 7.93072Z" fill="black"/>
<path d="M106.142 19.0865C107.518 19.3221 108.235 20.8604 107.531 22.0664L106.311 24.1549C105.498 25.5484 103.454 25.454 102.772 23.9916L101.607 21.4949C100.926 20.0324 102.167 18.406 103.758 18.6783L106.142 19.0865Z" fill="black"/>
<path d="M109.272 33.356C110.42 34.1514 110.42 35.8486 109.272 36.644L107.284 38.0214C105.957 38.9404 104.145 37.991 104.145 36.3774V33.6226C104.145 32.009 105.957 31.0596 107.284 31.9786L109.272 33.356Z" fill="black"/>
<path d="M106.119 45.6621C106.693 46.9351 105.819 48.3899 104.426 48.4804L102.012 48.6372C100.402 48.7417 99.337 46.9944 100.168 45.6113L101.587 43.2499C102.418 41.8668 104.461 41.9866 105.124 43.4575L106.119 45.6621Z" fill="black"/>
<path d="M97.0782 54.7832C96.9634 56.1751 95.4936 57.0237 94.2308 56.4272L92.0438 55.3941C90.5848 54.7049 90.5006 52.6605 91.8981 51.8537L94.2838 50.4763C95.6813 49.6694 97.4097 50.7645 97.2771 52.3727L97.0782 54.7832Z" fill="black"/>
<path d="M83.2885 59.6271C82.4932 60.7751 80.7959 60.7751 80.0005 59.6271L78.6231 57.639C77.7042 56.3126 78.6535 54.5 80.2671 54.5H83.0219C84.6356 54.5 85.5849 56.3126 84.6659 57.639L83.2885 59.6271Z" fill="black"/>
<path d="M69.2674 56.632C67.9574 57.1161 66.5671 56.1426 66.5741 54.746L66.5861 52.3274C66.5941 50.7138 68.4114 49.7735 69.7332 50.6991L71.9898 52.2792C73.3116 53.2047 73.0496 55.234 71.5361 55.7934L69.2674 56.632Z" fill="black"/>
<path d="M60.1469 47.4968C58.7509 47.455 57.8265 46.0315 58.3562 44.7392L59.2733 42.5012C59.8853 41.0081 61.9225 40.8171 62.8013 42.1704L64.3017 44.4808C65.1805 45.8341 64.1774 47.6174 62.5645 47.5691L60.1469 47.4968Z" fill="black"/>
</svg>
