<svg width="223" height="46" viewBox="0 0 223 46" fill="none" xmlns="http://www.w3.org/2000/svg">
<path d="M215.301 29.428C214.979 28.4572 216.12 27.3939 217.159 27.1834C218.091 26.9949 219.106 27.6257 219.426 28.5925C219.747 29.5594 219.251 30.4966 218.32 30.6851C217.278 30.8954 215.622 30.4 215.301 29.428ZM214.989 25.069C214.347 24.0348 215.295 22.3849 216.39 21.8068C217.357 21.2956 218.67 21.7286 219.322 22.7777C219.973 23.8253 219.719 25.0902 218.751 25.6026C217.656 26.1808 215.632 26.1031 214.989 25.069ZM207.577 21.7115C206.604 21.3894 206.106 19.7278 206.316 18.686C206.504 17.7519 207.443 17.2554 208.414 17.5773C209.383 17.8978 210.017 18.916 209.827 19.8487C209.614 20.8903 208.551 22.0335 207.577 21.7115ZM211.553 21.6329C210.519 20.9904 210.442 18.9661 211.021 17.8728C211.532 16.9059 212.797 16.6493 213.846 17.3017C214.895 17.9542 215.329 19.2656 214.817 20.2338C214.237 21.327 212.588 22.2753 211.553 21.6329ZM212.908 24.1006C214.451 25.6433 214.73 30.0104 213.078 31.6627C211.98 32.7599 210.965 32.9939 210.046 32.5098C209.729 32.3427 209.515 32.1568 209.215 31.8404C209.156 31.7785 209.146 31.7662 209.128 31.7483C208.966 31.5867 208.85 31.3794 208.714 31.0654C208.67 30.9608 208.624 30.8484 208.562 30.6873C208.607 30.8022 208.444 30.3848 208.406 30.2883C208.278 29.9658 208.173 29.7259 208.06 29.5151C207.974 29.3523 207.886 29.2138 207.798 29.101L207.908 29.2115C207.794 29.1239 207.657 29.0372 207.493 28.95C207.279 28.8375 207.042 28.7324 206.718 28.6058C206.622 28.567 206.205 28.4069 206.318 28.4508C206.157 28.3882 206.045 28.3431 205.94 28.2986C205.626 28.165 205.418 28.0477 205.256 27.8861C205.238 27.8681 205.227 27.8571 205.164 27.7987C204.847 27.4992 204.662 27.2845 204.494 26.9683C204.01 26.0492 204.244 25.0335 205.342 23.9363C206.994 22.284 211.366 22.558 212.908 24.1006Z" fill="#FEC192"/>
<path fill-rule="evenodd" clip-rule="evenodd" d="M216.904 27.2426C215.865 27.4532 214.724 28.5165 215.046 29.4873C215.367 30.4593 217.023 30.9547 218.065 30.7443C218.996 30.5558 219.492 29.6186 219.171 28.6518C218.851 27.685 217.836 27.0541 216.904 27.2426ZM216.135 21.8661C215.04 22.4442 214.092 24.094 214.735 25.1282C215.377 26.1624 217.401 26.24 218.496 25.6619C219.464 25.1495 219.718 23.8846 219.067 22.8369C218.415 21.7879 217.102 21.3549 216.135 21.8661ZM206.061 18.7452C205.851 19.787 206.349 21.4487 207.322 21.7707C208.296 22.0928 209.359 20.9496 209.572 19.9079C209.762 18.9752 209.128 17.9571 208.159 17.6366C207.188 17.3147 206.249 17.8112 206.061 18.7452ZM210.766 17.9321C210.187 19.0253 210.264 21.0497 211.298 21.6921C212.333 22.3346 213.982 21.3863 214.562 20.293C215.074 19.3249 214.64 18.0134 213.591 17.361C212.542 16.7085 211.277 16.9651 210.766 17.9321ZM212.823 31.722C214.475 30.0696 214.196 25.7026 212.653 24.1599C211.111 22.6173 206.739 22.3432 205.087 23.9956C203.989 25.0927 203.755 26.1085 204.239 27.0275C204.407 27.3437 204.592 27.5584 204.909 27.858C204.972 27.9163 204.983 27.9274 205.001 27.9453C205.163 28.1069 205.371 28.2242 205.685 28.3578C205.786 28.4006 205.893 28.4438 206.044 28.5026C206.043 28.502 206.048 28.5043 206.063 28.51C206.057 28.5075 206.05 28.505 206.044 28.5026C206.054 28.5061 206.38 28.6313 206.463 28.6651C206.787 28.7916 207.024 28.8968 207.238 29.0093C207.373 29.0814 207.491 29.153 207.592 29.2252C207.664 29.3249 207.735 29.4415 207.805 29.5743C207.918 29.7852 208.023 30.0251 208.151 30.3476C208.19 30.4441 208.352 30.8615 208.307 30.7465C208.37 30.9077 208.415 31.02 208.459 31.1247C208.595 31.4387 208.711 31.6459 208.873 31.8075C208.881 31.8156 208.887 31.8224 208.897 31.8331C208.91 31.8464 208.927 31.8654 208.96 31.8997C209.26 32.2161 209.474 32.4019 209.791 32.5691C210.71 33.0532 211.725 32.8191 212.823 31.722ZM217.774 29.7808C217.199 29.8977 216.139 29.5799 216.057 29.3326C215.975 29.0865 216.704 28.4072 217.28 28.2891C217.678 28.2088 218.111 28.4779 218.246 28.8896C218.383 29.3026 218.171 29.7017 217.774 29.7808ZM217.923 24.7405C217.235 25.1027 215.815 25.0477 215.585 24.6784C215.354 24.3076 216.02 23.1497 216.708 22.7875C217.206 22.5239 217.881 22.7468 218.217 23.2868C218.552 23.8267 218.421 24.4769 217.923 24.7405ZM208.53 19.5387C208.413 20.1166 207.731 20.8481 207.483 20.7653C207.234 20.6825 206.915 19.6206 207.033 19.0441C207.113 18.6461 207.514 18.4336 207.927 18.5702C208.34 18.7068 208.61 19.1407 208.53 19.5387ZM213.642 19.7189C213.278 20.4057 212.118 21.0717 211.748 20.8417C211.379 20.6118 211.324 19.1917 211.689 18.5038C211.952 18.0054 212.603 17.8745 213.142 18.2102C213.682 18.5458 213.905 19.2206 213.642 19.7189ZM205.861 24.7678C207.143 23.4855 210.867 23.7197 211.98 24.8329C213.095 25.9474 213.331 29.6664 212.048 30.9472C211.21 31.7848 210.627 31.9204 210.164 31.6762C209.998 31.5888 209.866 31.4743 209.654 31.25C209.585 31.1759 209.574 31.1648 209.543 31.1344L209.543 31.1344L209.543 31.1338C209.489 31.0806 209.489 31.0805 209.097 30.0894C208.955 29.7287 208.834 29.4543 208.695 29.1953C208.577 28.9738 208.454 28.7789 208.319 28.605L208.271 28.5425L208.208 28.4945C208.034 28.3591 207.837 28.2361 207.615 28.1179C207.355 27.9803 207.081 27.8597 206.72 27.7177C205.728 27.3263 205.728 27.3262 205.675 27.273L205.674 27.2724C205.645 27.2434 205.633 27.231 205.558 27.1615C205.334 26.9493 205.22 26.818 205.132 26.6513C204.889 26.1872 205.024 25.6054 205.861 24.7678Z" fill="#FF6F00"/>
<mask id="path-3-outside-1_12_46" maskUnits="userSpaceOnUse" x="8" y="8" width="198" height="30" fill="black">
<rect fill="white" x="8" y="8" width="198" height="30"/>
<path d="M9.09961 18.3516C9.09961 17.3086 9.29883 16.3301 9.69727 15.416C10.0957 14.502 10.6348 13.7051 11.3145 13.0254C12.0059 12.334 12.8086 11.7891 13.7227 11.3906C14.6367 10.9922 15.6152 10.793 16.6582 10.793H28.2246V15.8379H16.6582C16.3066 15.8379 15.9785 15.9023 15.6738 16.0312C15.3691 16.1602 15.0996 16.3418 14.8652 16.5762C14.6426 16.7988 14.4668 17.0625 14.3379 17.3672C14.209 17.6719 14.1445 18 14.1445 18.3516C14.1445 18.7031 14.209 19.0371 14.3379 19.3535C14.4668 19.6582 14.6426 19.9277 14.8652 20.1621C15.0996 20.3848 15.3691 20.5605 15.6738 20.6895C15.9785 20.8184 16.3066 20.8828 16.6582 20.8828H21.7031C22.7461 20.8828 23.7246 21.082 24.6387 21.4805C25.5645 21.8672 26.3672 22.4062 27.0469 23.0977C27.7383 23.7773 28.2773 24.5801 28.6641 25.5059C29.0625 26.4199 29.2617 27.3984 29.2617 28.4414C29.2617 29.4844 29.0625 30.4629 28.6641 31.377C28.2773 32.291 27.7383 33.0938 27.0469 33.7852C26.3672 34.4648 25.5645 35.0039 24.6387 35.4023C23.7246 35.8008 22.7461 36 21.7031 36H10.5059V30.9551H21.7031C22.0547 30.9551 22.3828 30.8906 22.6875 30.7617C22.9922 30.6328 23.2559 30.457 23.4785 30.2344C23.7129 30 23.8945 29.7305 24.0234 29.4258C24.1523 29.1211 24.2168 28.793 24.2168 28.4414C24.2168 28.0898 24.1523 27.7617 24.0234 27.457C23.8945 27.1523 23.7129 26.8887 23.4785 26.666C23.2559 26.4316 22.9922 26.25 22.6875 26.1211C22.3828 25.9922 22.0547 25.9277 21.7031 25.9277H16.6582C15.6152 25.9277 14.6367 25.7285 13.7227 25.3301C12.8086 24.9316 12.0059 24.3926 11.3145 23.7129C10.6348 23.0215 10.0957 22.2188 9.69727 21.3047C9.29883 20.3789 9.09961 19.3945 9.09961 18.3516ZM55.8398 36H51.0586V24.0469C51.0586 23.7188 50.9941 23.4082 50.8652 23.1152C50.748 22.8223 50.5781 22.5645 50.3555 22.3418C50.1328 22.1191 49.875 21.9492 49.582 21.832C49.2891 21.7031 48.9785 21.6387 48.6504 21.6387C48.3223 21.6387 48.0117 21.7031 47.7188 21.832C47.4375 21.9492 47.1855 22.1191 46.9629 22.3418C46.752 22.5645 46.582 22.8223 46.4531 23.1152C46.3359 23.4082 46.2773 23.7188 46.2773 24.0469V36H41.4785V24.0469C41.4785 23.7188 41.4141 23.4082 41.2852 23.1152C41.168 22.8223 40.998 22.5645 40.7754 22.3418C40.5527 22.1191 40.2949 21.9492 40.002 21.832C39.709 21.7031 39.3984 21.6387 39.0703 21.6387C38.7422 21.6387 38.4316 21.7031 38.1387 21.832C37.8574 21.9492 37.6055 22.1191 37.3828 22.3418C37.1719 22.5645 37.002 22.8223 36.873 23.1152C36.7559 23.4082 36.6973 23.7188 36.6973 24.0469V36H31.8984V17.1738H33.0586L34.3594 18.6152C35.0273 18.0527 35.7598 17.6191 36.5566 17.3145C37.3652 16.998 38.2031 16.8398 39.0703 16.8398C39.9492 16.8398 40.8047 17.0039 41.6367 17.332C42.4805 17.6602 43.2188 18.2285 43.8516 19.0371C44.1445 18.6387 44.4785 18.2988 44.8535 18.0176C45.2285 17.7363 45.6211 17.5078 46.0312 17.332C46.4531 17.1562 46.8867 17.0332 47.332 16.9629C47.7773 16.8809 48.2168 16.8398 48.6504 16.8398C49.6465 16.8398 50.5781 17.0273 51.4453 17.4023C52.3242 17.7773 53.0859 18.293 53.7305 18.9492C54.3867 19.5938 54.9023 20.3555 55.2773 21.2344C55.6523 22.1133 55.8398 23.0508 55.8398 24.0469V36ZM77.584 36H76.4238L74.5605 33.416C74.1035 33.8262 73.6172 34.2129 73.1016 34.5762C72.5977 34.9277 72.0645 35.2383 71.502 35.5078C70.9395 35.7656 70.3594 35.9707 69.7617 36.123C69.1758 36.2754 68.5781 36.3516 67.9688 36.3516C66.6445 36.3516 65.3965 36.1289 64.2246 35.6836C63.0645 35.2383 62.0449 34.5938 61.166 33.75C60.2988 32.8945 59.6133 31.8516 59.1094 30.6211C58.6055 29.3906 58.3535 27.9902 58.3535 26.4199C58.3535 24.9551 58.6055 23.6133 59.1094 22.3945C59.6133 21.1641 60.2988 20.1094 61.166 19.2305C62.0449 18.3516 63.0645 17.6719 64.2246 17.1914C65.3965 16.6992 66.6445 16.4531 67.9688 16.4531C68.5781 16.4531 69.1816 16.5293 69.7793 16.6816C70.377 16.834 70.957 17.0449 71.5195 17.3145C72.082 17.584 72.6152 17.9004 73.1191 18.2637C73.6348 18.627 74.1152 19.0195 74.5605 19.4414L76.4238 17.209H77.584V36ZM72.75 26.4199C72.75 25.7637 72.6211 25.1309 72.3633 24.5215C72.1172 23.9004 71.7773 23.3555 71.3438 22.8867C70.9102 22.4062 70.4004 22.0254 69.8145 21.7441C69.2402 21.4512 68.625 21.3047 67.9688 21.3047C67.3125 21.3047 66.6914 21.416 66.1055 21.6387C65.5312 21.8613 65.0273 22.1895 64.5938 22.623C64.1719 23.0566 63.8379 23.5957 63.5918 24.2402C63.3457 24.873 63.2227 25.5996 63.2227 26.4199C63.2227 27.2402 63.3457 27.9727 63.5918 28.6172C63.8379 29.25 64.1719 29.7832 64.5938 30.2168C65.0273 30.6504 65.5312 30.9785 66.1055 31.2012C66.6914 31.4238 67.3125 31.5352 67.9688 31.5352C68.625 31.5352 69.2402 31.3945 69.8145 31.1133C70.4004 30.8203 70.9102 30.4395 71.3438 29.9707C71.7773 29.4902 72.1172 28.9453 72.3633 28.3359C72.6211 27.7148 72.75 27.0762 72.75 26.4199ZM86.0566 36H81.2578V17.1738H82.418L84 19.4062C84.7734 18.7031 85.6523 18.1641 86.6367 17.7891C87.6211 17.4023 88.6406 17.209 89.6953 17.209H93.9316V21.9902H89.6953C89.1914 21.9902 88.7168 22.084 88.2715 22.2715C87.8262 22.459 87.4395 22.7168 87.1113 23.0449C86.7832 23.373 86.5254 23.7598 86.3379 24.2051C86.1504 24.6504 86.0566 25.125 86.0566 25.6289V36ZM105.604 36C104.443 36 103.354 35.7832 102.334 35.3496C101.314 34.9043 100.418 34.3008 99.6445 33.5391C98.8828 32.7656 98.2793 31.8691 97.834 30.8496C97.4004 29.8301 97.1836 28.7402 97.1836 27.5801V21.9902H94.8457V17.209H97.1836V9.68555H101.965V17.209H109.242V21.9902H101.965V27.5801C101.965 28.084 102.059 28.5586 102.246 29.0039C102.434 29.4375 102.691 29.8184 103.02 30.1465C103.348 30.4746 103.734 30.7383 104.18 30.9375C104.625 31.125 105.1 31.2188 105.604 31.2188H109.242V36H105.604ZM117.504 36H112.459V10.793H130.107V15.8379H117.504V20.8828H125.062V25.9277H117.504V36ZM137.473 31.3945C137.66 31.4531 137.848 31.4941 138.035 31.5176C138.223 31.5293 138.41 31.5352 138.598 31.5352C139.066 31.5352 139.518 31.4707 139.951 31.3418C140.385 31.2129 140.789 31.0312 141.164 30.7969C141.551 30.5508 141.891 30.2578 142.184 29.918C142.488 29.5664 142.734 29.1797 142.922 28.7578L146.438 32.291C145.992 32.9238 145.477 33.4922 144.891 33.9961C144.316 34.5 143.689 34.9277 143.01 35.2793C142.342 35.6309 141.633 35.8945 140.883 36.0703C140.145 36.2578 139.383 36.3516 138.598 36.3516C137.273 36.3516 136.025 36.1055 134.854 35.6133C133.693 35.1211 132.674 34.4355 131.795 33.5566C130.928 32.6777 130.242 31.6348 129.738 30.4277C129.234 29.209 128.982 27.873 128.982 26.4199C128.982 24.9316 129.234 23.5723 129.738 22.3418C130.242 21.1113 130.928 20.0625 131.795 19.1953C132.674 18.3281 133.693 17.6543 134.854 17.1738C136.025 16.6934 137.273 16.4531 138.598 16.4531C139.383 16.4531 140.15 16.5469 140.9 16.7344C141.65 16.9219 142.359 17.1914 143.027 17.543C143.707 17.8945 144.34 18.3281 144.926 18.8438C145.512 19.3477 146.027 19.916 146.473 20.5488L137.473 31.3945ZM139.934 21.498C139.711 21.416 139.488 21.3633 139.266 21.3398C139.055 21.3164 138.832 21.3047 138.598 21.3047C137.941 21.3047 137.32 21.4277 136.734 21.6738C136.16 21.9082 135.656 22.248 135.223 22.6934C134.801 23.1387 134.467 23.6777 134.221 24.3105C133.975 24.9316 133.852 25.6348 133.852 26.4199C133.852 26.5957 133.857 26.7949 133.869 27.0176C133.893 27.2402 133.922 27.4688 133.957 27.7031C134.004 27.9258 134.057 28.1426 134.115 28.3535C134.174 28.5645 134.25 28.752 134.344 28.916L139.934 21.498ZM153.697 36H148.898V17.1738H150.059L151.641 19.002C152.414 18.2988 153.287 17.7598 154.26 17.3848C155.244 16.998 156.27 16.8047 157.336 16.8047C158.484 16.8047 159.568 17.0273 160.588 17.4727C161.607 17.9062 162.498 18.5098 163.26 19.2832C164.021 20.0449 164.619 20.9414 165.053 21.9727C165.498 22.9922 165.721 24.082 165.721 25.2422V36H160.922V25.2422C160.922 24.75 160.828 24.2871 160.641 23.8535C160.453 23.4082 160.195 23.0215 159.867 22.6934C159.539 22.3652 159.158 22.1074 158.725 21.9199C158.291 21.7324 157.828 21.6387 157.336 21.6387C156.832 21.6387 156.357 21.7324 155.912 21.9199C155.467 22.1074 155.08 22.3652 154.752 22.6934C154.424 23.0215 154.166 23.4082 153.979 23.8535C153.791 24.2871 153.697 24.75 153.697 25.2422V36ZM185.602 20.918L182.086 24.4512C181.91 23.959 181.67 23.5195 181.365 23.1328C181.061 22.7344 180.715 22.4004 180.328 22.1309C179.953 21.8613 179.543 21.6562 179.098 21.5156C178.652 21.375 178.195 21.3047 177.727 21.3047C177.07 21.3047 176.449 21.4395 175.863 21.709C175.289 21.9785 174.785 22.3594 174.352 22.8516C173.93 23.332 173.596 23.9062 173.35 24.5742C173.104 25.2422 172.98 25.9805 172.98 26.7891C172.98 27.4453 173.104 28.0605 173.35 28.6348C173.596 29.209 173.93 29.7129 174.352 30.1465C174.785 30.5801 175.289 30.9199 175.863 31.166C176.449 31.4121 177.07 31.5352 177.727 31.5352C178.195 31.5352 178.646 31.4707 179.08 31.3418C179.514 31.2129 179.918 31.0312 180.293 30.7969C180.68 30.5508 181.02 30.2578 181.312 29.918C181.617 29.5664 181.863 29.1797 182.051 28.7578L185.566 32.291C185.121 32.9238 184.605 33.4922 184.02 33.9961C183.445 34.5 182.818 34.9277 182.139 35.2793C181.471 35.6309 180.762 35.8945 180.012 36.0703C179.273 36.2578 178.512 36.3516 177.727 36.3516C176.402 36.3516 175.154 36.1055 173.982 35.6133C172.822 35.1094 171.803 34.4238 170.924 33.5566C170.057 32.6895 169.371 31.6758 168.867 30.5156C168.363 29.3555 168.111 28.1133 168.111 26.7891C168.111 25.3477 168.363 24 168.867 22.7461C169.371 21.4922 170.057 20.4023 170.924 19.4766C171.803 18.5391 172.822 17.8008 173.982 17.2617C175.154 16.7227 176.402 16.4531 177.727 16.4531C178.512 16.4531 179.279 16.5527 180.029 16.752C180.791 16.9512 181.512 17.2441 182.191 17.6309C182.883 18.0059 183.516 18.4688 184.09 19.0195C184.676 19.5703 185.18 20.2031 185.602 20.918ZM195.164 31.3945C195.352 31.4531 195.539 31.4941 195.727 31.5176C195.914 31.5293 196.102 31.5352 196.289 31.5352C196.758 31.5352 197.209 31.4707 197.643 31.3418C198.076 31.2129 198.48 31.0312 198.855 30.7969C199.242 30.5508 199.582 30.2578 199.875 29.918C200.18 29.5664 200.426 29.1797 200.613 28.7578L204.129 32.291C203.684 32.9238 203.168 33.4922 202.582 33.9961C202.008 34.5 201.381 34.9277 200.701 35.2793C200.033 35.6309 199.324 35.8945 198.574 36.0703C197.836 36.2578 197.074 36.3516 196.289 36.3516C194.965 36.3516 193.717 36.1055 192.545 35.6133C191.385 35.1211 190.365 34.4355 189.486 33.5566C188.619 32.6777 187.934 31.6348 187.43 30.4277C186.926 29.209 186.674 27.873 186.674 26.4199C186.674 24.9316 186.926 23.5723 187.43 22.3418C187.934 21.1113 188.619 20.0625 189.486 19.1953C190.365 18.3281 191.385 17.6543 192.545 17.1738C193.717 16.6934 194.965 16.4531 196.289 16.4531C197.074 16.4531 197.842 16.5469 198.592 16.7344C199.342 16.9219 200.051 17.1914 200.719 17.543C201.398 17.8945 202.031 18.3281 202.617 18.8438C203.203 19.3477 203.719 19.916 204.164 20.5488L195.164 31.3945ZM197.625 21.498C197.402 21.416 197.18 21.3633 196.957 21.3398C196.746 21.3164 196.523 21.3047 196.289 21.3047C195.633 21.3047 195.012 21.4277 194.426 21.6738C193.852 21.9082 193.348 22.248 192.914 22.6934C192.492 23.1387 192.158 23.6777 191.912 24.3105C191.666 24.9316 191.543 25.6348 191.543 26.4199C191.543 26.5957 191.549 26.7949 191.561 27.0176C191.584 27.2402 191.613 27.4688 191.648 27.7031C191.695 27.9258 191.748 28.1426 191.807 28.3535C191.865 28.5645 191.941 28.752 192.035 28.916L197.625 21.498Z"/>
</mask>
<path d="M9.09961 18.3516C9.09961 17.3086 9.29883 16.3301 9.69727 15.416C10.0957 14.502 10.6348 13.7051 11.3145 13.0254C12.0059 12.334 12.8086 11.7891 13.7227 11.3906C14.6367 10.9922 15.6152 10.793 16.6582 10.793H28.2246V15.8379H16.6582C16.3066 15.8379 15.9785 15.9023 15.6738 16.0312C15.3691 16.1602 15.0996 16.3418 14.8652 16.5762C14.6426 16.7988 14.4668 17.0625 14.3379 17.3672C14.209 17.6719 14.1445 18 14.1445 18.3516C14.1445 18.7031 14.209 19.0371 14.3379 19.3535C14.4668 19.6582 14.6426 19.9277 14.8652 20.1621C15.0996 20.3848 15.3691 20.5605 15.6738 20.6895C15.9785 20.8184 16.3066 20.8828 16.6582 20.8828H21.7031C22.7461 20.8828 23.7246 21.082 24.6387 21.4805C25.5645 21.8672 26.3672 22.4062 27.0469 23.0977C27.7383 23.7773 28.2773 24.5801 28.6641 25.5059C29.0625 26.4199 29.2617 27.3984 29.2617 28.4414C29.2617 29.4844 29.0625 30.4629 28.6641 31.377C28.2773 32.291 27.7383 33.0938 27.0469 33.7852C26.3672 34.4648 25.5645 35.0039 24.6387 35.4023C23.7246 35.8008 22.7461 36 21.7031 36H10.5059V30.9551H21.7031C22.0547 30.9551 22.3828 30.8906 22.6875 30.7617C22.9922 30.6328 23.2559 30.457 23.4785 30.2344C23.7129 30 23.8945 29.7305 24.0234 29.4258C24.1523 29.1211 24.2168 28.793 24.2168 28.4414C24.2168 28.0898 24.1523 27.7617 24.0234 27.457C23.8945 27.1523 23.7129 26.8887 23.4785 26.666C23.2559 26.4316 22.9922 26.25 22.6875 26.1211C22.3828 25.9922 22.0547 25.9277 21.7031 25.9277H16.6582C15.6152 25.9277 14.6367 25.7285 13.7227 25.3301C12.8086 24.9316 12.0059 24.3926 11.3145 23.7129C10.6348 23.0215 10.0957 22.2188 9.69727 21.3047C9.29883 20.3789 9.09961 19.3945 9.09961 18.3516ZM55.8398 36H51.0586V24.0469C51.0586 23.7188 50.9941 23.4082 50.8652 23.1152C50.748 22.8223 50.5781 22.5645 50.3555 22.3418C50.1328 22.1191 49.875 21.9492 49.582 21.832C49.2891 21.7031 48.9785 21.6387 48.6504 21.6387C48.3223 21.6387 48.0117 21.7031 47.7188 21.832C47.4375 21.9492 47.1855 22.1191 46.9629 22.3418C46.752 22.5645 46.582 22.8223 46.4531 23.1152C46.3359 23.4082 46.2773 23.7188 46.2773 24.0469V36H41.4785V24.0469C41.4785 23.7188 41.4141 23.4082 41.2852 23.1152C41.168 22.8223 40.998 22.5645 40.7754 22.3418C40.5527 22.1191 40.2949 21.9492 40.002 21.832C39.709 21.7031 39.3984 21.6387 39.0703 21.6387C38.7422 21.6387 38.4316 21.7031 38.1387 21.832C37.8574 21.9492 37.6055 22.1191 37.3828 22.3418C37.1719 22.5645 37.002 22.8223 36.873 23.1152C36.7559 23.4082 36.6973 23.7188 36.6973 24.0469V36H31.8984V17.1738H33.0586L34.3594 18.6152C35.0273 18.0527 35.7598 17.6191 36.5566 17.3145C37.3652 16.998 38.2031 16.8398 39.0703 16.8398C39.9492 16.8398 40.8047 17.0039 41.6367 17.332C42.4805 17.6602 43.2188 18.2285 43.8516 19.0371C44.1445 18.6387 44.4785 18.2988 44.8535 18.0176C45.2285 17.7363 45.6211 17.5078 46.0312 17.332C46.4531 17.1562 46.8867 17.0332 47.332 16.9629C47.7773 16.8809 48.2168 16.8398 48.6504 16.8398C49.6465 16.8398 50.5781 17.0273 51.4453 17.4023C52.3242 17.7773 53.0859 18.293 53.7305 18.9492C54.3867 19.5938 54.9023 20.3555 55.2773 21.2344C55.6523 22.1133 55.8398 23.0508 55.8398 24.0469V36ZM77.584 36H76.4238L74.5605 33.416C74.1035 33.8262 73.6172 34.2129 73.1016 34.5762C72.5977 34.9277 72.0645 35.2383 71.502 35.5078C70.9395 35.7656 70.3594 35.9707 69.7617 36.123C69.1758 36.2754 68.5781 36.3516 67.9688 36.3516C66.6445 36.3516 65.3965 36.1289 64.2246 35.6836C63.0645 35.2383 62.0449 34.5938 61.166 33.75C60.2988 32.8945 59.6133 31.8516 59.1094 30.6211C58.6055 29.3906 58.3535 27.9902 58.3535 26.4199C58.3535 24.9551 58.6055 23.6133 59.1094 22.3945C59.6133 21.1641 60.2988 20.1094 61.166 19.2305C62.0449 18.3516 63.0645 17.6719 64.2246 17.1914C65.3965 16.6992 66.6445 16.4531 67.9688 16.4531C68.5781 16.4531 69.1816 16.5293 69.7793 16.6816C70.377 16.834 70.957 17.0449 71.5195 17.3145C72.082 17.584 72.6152 17.9004 73.1191 18.2637C73.6348 18.627 74.1152 19.0195 74.5605 19.4414L76.4238 17.209H77.584V36ZM72.75 26.4199C72.75 25.7637 72.6211 25.1309 72.3633 24.5215C72.1172 23.9004 71.7773 23.3555 71.3438 22.8867C70.9102 22.4062 70.4004 22.0254 69.8145 21.7441C69.2402 21.4512 68.625 21.3047 67.9688 21.3047C67.3125 21.3047 66.6914 21.416 66.1055 21.6387C65.5312 21.8613 65.0273 22.1895 64.5938 22.623C64.1719 23.0566 63.8379 23.5957 63.5918 24.2402C63.3457 24.873 63.2227 25.5996 63.2227 26.4199C63.2227 27.2402 63.3457 27.9727 63.5918 28.6172C63.8379 29.25 64.1719 29.7832 64.5938 30.2168C65.0273 30.6504 65.5312 30.9785 66.1055 31.2012C66.6914 31.4238 67.3125 31.5352 67.9688 31.5352C68.625 31.5352 69.2402 31.3945 69.8145 31.1133C70.4004 30.8203 70.9102 30.4395 71.3438 29.9707C71.7773 29.4902 72.1172 28.9453 72.3633 28.3359C72.6211 27.7148 72.75 27.0762 72.75 26.4199ZM86.0566 36H81.2578V17.1738H82.418L84 19.4062C84.7734 18.7031 85.6523 18.1641 86.6367 17.7891C87.6211 17.4023 88.6406 17.209 89.6953 17.209H93.9316V21.9902H89.6953C89.1914 21.9902 88.7168 22.084 88.2715 22.2715C87.8262 22.459 87.4395 22.7168 87.1113 23.0449C86.7832 23.373 86.5254 23.7598 86.3379 24.2051C86.1504 24.6504 86.0566 25.125 86.0566 25.6289V36ZM105.604 36C104.443 36 103.354 35.7832 102.334 35.3496C101.314 34.9043 100.418 34.3008 99.6445 33.5391C98.8828 32.7656 98.2793 31.8691 97.834 30.8496C97.4004 29.8301 97.1836 28.7402 97.1836 27.5801V21.9902H94.8457V17.209H97.1836V9.68555H101.965V17.209H109.242V21.9902H101.965V27.5801C101.965 28.084 102.059 28.5586 102.246 29.0039C102.434 29.4375 102.691 29.8184 103.02 30.1465C103.348 30.4746 103.734 30.7383 104.18 30.9375C104.625 31.125 105.1 31.2188 105.604 31.2188H109.242V36H105.604ZM117.504 36H112.459V10.793H130.107V15.8379H117.504V20.8828H125.062V25.9277H117.504V36ZM137.473 31.3945C137.66 31.4531 137.848 31.4941 138.035 31.5176C138.223 31.5293 138.41 31.5352 138.598 31.5352C139.066 31.5352 139.518 31.4707 139.951 31.3418C140.385 31.2129 140.789 31.0312 141.164 30.7969C141.551 30.5508 141.891 30.2578 142.184 29.918C142.488 29.5664 142.734 29.1797 142.922 28.7578L146.438 32.291C145.992 32.9238 145.477 33.4922 144.891 33.9961C144.316 34.5 143.689 34.9277 143.01 35.2793C142.342 35.6309 141.633 35.8945 140.883 36.0703C140.145 36.2578 139.383 36.3516 138.598 36.3516C137.273 36.3516 136.025 36.1055 134.854 35.6133C133.693 35.1211 132.674 34.4355 131.795 33.5566C130.928 32.6777 130.242 31.6348 129.738 30.4277C129.234 29.209 128.982 27.873 128.982 26.4199C128.982 24.9316 129.234 23.5723 129.738 22.3418C130.242 21.1113 130.928 20.0625 131.795 19.1953C132.674 18.3281 133.693 17.6543 134.854 17.1738C136.025 16.6934 137.273 16.4531 138.598 16.4531C139.383 16.4531 140.15 16.5469 140.9 16.7344C141.65 16.9219 142.359 17.1914 143.027 17.543C143.707 17.8945 144.34 18.3281 144.926 18.8438C145.512 19.3477 146.027 19.916 146.473 20.5488L137.473 31.3945ZM139.934 21.498C139.711 21.416 139.488 21.3633 139.266 21.3398C139.055 21.3164 138.832 21.3047 138.598 21.3047C137.941 21.3047 137.32 21.4277 136.734 21.6738C136.16 21.9082 135.656 22.248 135.223 22.6934C134.801 23.1387 134.467 23.6777 134.221 24.3105C133.975 24.9316 133.852 25.6348 133.852 26.4199C133.852 26.5957 133.857 26.7949 133.869 27.0176C133.893 27.2402 133.922 27.4688 133.957 27.7031C134.004 27.9258 134.057 28.1426 134.115 28.3535C134.174 28.5645 134.25 28.752 134.344 28.916L139.934 21.498ZM153.697 36H148.898V17.1738H150.059L151.641 19.002C152.414 18.2988 153.287 17.7598 154.26 17.3848C155.244 16.998 156.27 16.8047 157.336 16.8047C158.484 16.8047 159.568 17.0273 160.588 17.4727C161.607 17.9062 162.498 18.5098 163.26 19.2832C164.021 20.0449 164.619 20.9414 165.053 21.9727C165.498 22.9922 165.721 24.082 165.721 25.2422V36H160.922V25.2422C160.922 24.75 160.828 24.2871 160.641 23.8535C160.453 23.4082 160.195 23.0215 159.867 22.6934C159.539 22.3652 159.158 22.1074 158.725 21.9199C158.291 21.7324 157.828 21.6387 157.336 21.6387C156.832 21.6387 156.357 21.7324 155.912 21.9199C155.467 22.1074 155.08 22.3652 154.752 22.6934C154.424 23.0215 154.166 23.4082 153.979 23.8535C153.791 24.2871 153.697 24.75 153.697 25.2422V36ZM185.602 20.918L182.086 24.4512C181.91 23.959 181.67 23.5195 181.365 23.1328C181.061 22.7344 180.715 22.4004 180.328 22.1309C179.953 21.8613 179.543 21.6562 179.098 21.5156C178.652 21.375 178.195 21.3047 177.727 21.3047C177.07 21.3047 176.449 21.4395 175.863 21.709C175.289 21.9785 174.785 22.3594 174.352 22.8516C173.93 23.332 173.596 23.9062 173.35 24.5742C173.104 25.2422 172.98 25.9805 172.98 26.7891C172.98 27.4453 173.104 28.0605 173.35 28.6348C173.596 29.209 173.93 29.7129 174.352 30.1465C174.785 30.5801 175.289 30.9199 175.863 31.166C176.449 31.4121 177.07 31.5352 177.727 31.5352C178.195 31.5352 178.646 31.4707 179.08 31.3418C179.514 31.2129 179.918 31.0312 180.293 30.7969C180.68 30.5508 181.02 30.2578 181.312 29.918C181.617 29.5664 181.863 29.1797 182.051 28.7578L185.566 32.291C185.121 32.9238 184.605 33.4922 184.02 33.9961C183.445 34.5 182.818 34.9277 182.139 35.2793C181.471 35.6309 180.762 35.8945 180.012 36.0703C179.273 36.2578 178.512 36.3516 177.727 36.3516C176.402 36.3516 175.154 36.1055 173.982 35.6133C172.822 35.1094 171.803 34.4238 170.924 33.5566C170.057 32.6895 169.371 31.6758 168.867 30.5156C168.363 29.3555 168.111 28.1133 168.111 26.7891C168.111 25.3477 168.363 24 168.867 22.7461C169.371 21.4922 170.057 20.4023 170.924 19.4766C171.803 18.5391 172.822 17.8008 173.982 17.2617C175.154 16.7227 176.402 16.4531 177.727 16.4531C178.512 16.4531 179.279 16.5527 180.029 16.752C180.791 16.9512 181.512 17.2441 182.191 17.6309C182.883 18.0059 183.516 18.4688 184.09 19.0195C184.676 19.5703 185.18 20.2031 185.602 20.918ZM195.164 31.3945C195.352 31.4531 195.539 31.4941 195.727 31.5176C195.914 31.5293 196.102 31.5352 196.289 31.5352C196.758 31.5352 197.209 31.4707 197.643 31.3418C198.076 31.2129 198.48 31.0312 198.855 30.7969C199.242 30.5508 199.582 30.2578 199.875 29.918C200.18 29.5664 200.426 29.1797 200.613 28.7578L204.129 32.291C203.684 32.9238 203.168 33.4922 202.582 33.9961C202.008 34.5 201.381 34.9277 200.701 35.2793C200.033 35.6309 199.324 35.8945 198.574 36.0703C197.836 36.2578 197.074 36.3516 196.289 36.3516C194.965 36.3516 193.717 36.1055 192.545 35.6133C191.385 35.1211 190.365 34.4355 189.486 33.5566C188.619 32.6777 187.934 31.6348 187.43 30.4277C186.926 29.209 186.674 27.873 186.674 26.4199C186.674 24.9316 186.926 23.5723 187.43 22.3418C187.934 21.1113 188.619 20.0625 189.486 19.1953C190.365 18.3281 191.385 17.6543 192.545 17.1738C193.717 16.6934 194.965 16.4531 196.289 16.4531C197.074 16.4531 197.842 16.5469 198.592 16.7344C199.342 16.9219 200.051 17.1914 200.719 17.543C201.398 17.8945 202.031 18.3281 202.617 18.8438C203.203 19.3477 203.719 19.916 204.164 20.5488L195.164 31.3945ZM197.625 21.498C197.402 21.416 197.18 21.3633 196.957 21.3398C196.746 21.3164 196.523 21.3047 196.289 21.3047C195.633 21.3047 195.012 21.4277 194.426 21.6738C193.852 21.9082 193.348 22.248 192.914 22.6934C192.492 23.1387 192.158 23.6777 191.912 24.3105C191.666 24.9316 191.543 25.6348 191.543 26.4199C191.543 26.5957 191.549 26.7949 191.561 27.0176C191.584 27.2402 191.613 27.4688 191.648 27.7031C191.695 27.9258 191.748 28.1426 191.807 28.3535C191.865 28.5645 191.941 28.752 192.035 28.916L197.625 21.498Z" fill="url(#paint0_linear_12_46)"/>
<path d="M28.2246 10.793H29.2246V9.79297H28.2246V10.793ZM28.2246 15.8379V16.8379H29.2246V15.8379H28.2246ZM14.3379 19.3535L13.4117 19.7308L13.4169 19.7432L14.3379 19.3535ZM14.8652 20.1621L14.1402 20.8509L14.1579 20.8694L14.1765 20.8871L14.8652 20.1621ZM24.6387 21.4805L24.2391 22.3972L24.2461 22.4002L24.2532 22.4032L24.6387 21.4805ZM27.0469 23.0977L26.3337 23.7987L26.3397 23.8048L26.3458 23.8108L27.0469 23.0977ZM28.6641 25.5059L27.7413 25.8913L27.7443 25.8984L27.7474 25.9054L28.6641 25.5059ZM28.6641 31.377L27.7473 30.9773L27.7431 30.9873L28.6641 31.377ZM24.6387 35.4023L24.2433 34.4838L24.2391 34.4856L24.6387 35.4023ZM10.5059 36H9.50586V37H10.5059V36ZM10.5059 30.9551V29.9551H9.50586V30.9551H10.5059ZM23.4785 26.666L22.7535 27.3548L22.7712 27.3734L22.7898 27.391L23.4785 26.666ZM11.3145 23.7129L10.6013 24.4139L10.6073 24.42L10.6134 24.426L11.3145 23.7129ZM9.69727 21.3047L8.77871 21.7L8.78057 21.7043L9.69727 21.3047ZM10.0996 18.3516C10.0996 17.4396 10.273 16.5978 10.614 15.8156L8.78057 15.0164C8.32467 16.0623 8.09961 17.1775 8.09961 18.3516H10.0996ZM10.614 15.8156C10.9643 15.0119 11.4337 14.3204 12.0216 13.7325L10.6073 12.3183C9.83587 13.0898 9.22711 13.992 8.78057 15.0164L10.614 15.8156ZM12.0216 13.7325C12.6227 13.1314 13.3206 12.6568 14.1222 12.3073L13.3231 10.4739C12.2966 10.9214 11.389 11.5366 10.6073 12.3183L12.0216 13.7325ZM14.1222 12.3073C14.9045 11.9663 15.7463 11.793 16.6582 11.793V9.79297C15.4842 9.79297 14.369 10.018 13.3231 10.4739L14.1222 12.3073ZM16.6582 11.793H28.2246V9.79297H16.6582V11.793ZM27.2246 10.793V15.8379H29.2246V10.793H27.2246ZM28.2246 14.8379H16.6582V16.8379H28.2246V14.8379ZM16.6582 14.8379C16.1813 14.8379 15.7198 14.926 15.2842 15.1103L16.0635 16.9522C16.2373 16.8787 16.432 16.8379 16.6582 16.8379V14.8379ZM15.2842 15.1103C14.8607 15.2895 14.4834 15.5438 14.1581 15.8691L15.5723 17.2833C15.7158 17.1398 15.8776 17.0308 16.0635 16.9522L15.2842 15.1103ZM14.1581 15.8691C13.8398 16.1874 13.5934 16.5604 13.4169 16.9775L15.2589 17.7568C15.3402 17.5646 15.4453 17.4103 15.5723 17.2833L14.1581 15.8691ZM13.4169 16.9775C13.2326 17.4131 13.1445 17.8746 13.1445 18.3516H15.1445C15.1445 18.1254 15.1853 17.9306 15.2589 17.7568L13.4169 16.9775ZM13.1445 18.3516C13.1445 18.8287 13.2327 19.2911 13.4118 19.7308L15.264 18.9762C15.1853 18.7831 15.1445 18.5776 15.1445 18.3516H13.1445ZM13.4169 19.7432C13.5915 20.1559 13.8329 20.5273 14.1402 20.8509L15.5902 19.4734C15.4523 19.3282 15.3421 19.1605 15.2589 18.9639L13.4169 19.7432ZM14.1765 20.8871C14.5 21.1945 14.8715 21.4358 15.2842 21.6104L16.0635 19.7685C15.8668 19.6853 15.6992 19.5751 15.554 19.4371L14.1765 20.8871ZM15.2842 21.6104C15.7198 21.7947 16.1813 21.8828 16.6582 21.8828V19.8828C16.432 19.8828 16.2373 19.842 16.0635 19.7685L15.2842 21.6104ZM16.6582 21.8828H21.7031V19.8828H16.6582V21.8828ZM21.7031 21.8828C22.615 21.8828 23.4569 22.0562 24.2391 22.3972L25.0383 20.5638C23.9924 20.1079 22.8771 19.8828 21.7031 19.8828V21.8828ZM24.2532 22.4032C25.0605 22.7404 25.7507 23.2056 26.3337 23.7987L27.76 22.3966C26.9837 21.6069 26.0684 20.994 25.0241 20.5577L24.2532 22.4032ZM26.3458 23.8108C26.9389 24.3938 27.4041 25.0841 27.7413 25.8913L29.5868 25.1204C29.1506 24.0761 28.5376 23.1609 27.7479 22.3845L26.3458 23.8108ZM27.7474 25.9054C28.0883 26.6877 28.2617 27.5295 28.2617 28.4414H30.2617C30.2617 27.2674 30.0367 26.1522 29.5808 25.1063L27.7474 25.9054ZM28.2617 28.4414C28.2617 29.3533 28.0883 30.1951 27.7474 30.9774L29.5808 31.7765C30.0367 30.7306 30.2617 29.6154 30.2617 28.4414H28.2617ZM27.7431 30.9873C27.4058 31.7846 26.9387 32.4791 26.3398 33.078L27.754 34.4923C28.5378 33.7084 29.1489 32.7974 29.585 31.7666L27.7431 30.9873ZM26.3398 33.078C25.754 33.6638 25.0585 34.133 24.2433 34.4838L25.034 36.3209C26.0704 35.8748 26.9804 35.2659 27.754 34.4923L26.3398 33.078ZM24.2391 34.4856C23.4569 34.8266 22.615 35 21.7031 35V37C22.8771 37 23.9924 36.7749 25.0383 36.319L24.2391 34.4856ZM21.7031 35H10.5059V37H21.7031V35ZM11.5059 36V30.9551H9.50586V36H11.5059ZM10.5059 31.9551H21.7031V29.9551H10.5059V31.9551ZM21.7031 31.9551C22.18 31.9551 22.6416 31.867 23.0771 31.6827L22.2979 29.8408C22.1241 29.9143 21.9293 29.9551 21.7031 29.9551V31.9551ZM23.0771 31.6827C23.4943 31.5062 23.8673 31.2598 24.1856 30.9415L22.7714 29.5273C22.6444 29.6543 22.49 29.7594 22.2979 29.8408L23.0771 31.6827ZM24.1856 30.9415C24.5109 30.6162 24.7652 30.2389 24.9444 29.8154L23.1025 29.0361C23.0238 29.222 22.9149 29.3838 22.7714 29.5273L24.1856 30.9415ZM24.9444 29.8154C25.1287 29.3799 25.2168 28.9183 25.2168 28.4414H23.2168C23.2168 28.6676 23.176 28.8623 23.1025 29.0361L24.9444 29.8154ZM25.2168 28.4414C25.2168 27.9645 25.1287 27.503 24.9444 27.0674L23.1025 27.8467C23.176 28.0205 23.2168 28.2152 23.2168 28.4414H25.2168ZM24.9444 27.0674C24.7632 26.6392 24.5036 26.2606 24.1673 25.941L22.7898 27.391C22.9222 27.5168 23.0258 27.6655 23.1025 27.8467L24.9444 27.0674ZM24.2035 25.9773C23.884 25.6409 23.5053 25.3813 23.0771 25.2001L22.2979 27.0421C22.479 27.1187 22.6277 27.2224 22.7535 27.3548L24.2035 25.9773ZM23.0771 25.2001C22.6416 25.0158 22.18 24.9277 21.7031 24.9277V26.9277C21.9293 26.9277 22.1241 26.9685 22.2979 27.0421L23.0771 25.2001ZM21.7031 24.9277H16.6582V26.9277H21.7031V24.9277ZM16.6582 24.9277C15.7463 24.9277 14.9045 24.7544 14.1222 24.4134L13.3231 26.2468C14.369 26.7027 15.4842 26.9277 16.6582 26.9277V24.9277ZM14.1222 24.4134C13.317 24.0624 12.6172 23.5913 12.0155 22.9998L10.6134 24.426C11.3945 25.1939 12.3002 25.8009 13.3231 26.2468L14.1222 24.4134ZM12.0276 23.0119C11.4361 22.4101 10.965 21.7103 10.614 20.9051L8.78057 21.7043C9.22645 22.7272 9.83348 23.6328 10.6013 24.4139L12.0276 23.0119ZM10.6158 20.9094C10.273 20.1128 10.0996 19.2634 10.0996 18.3516H8.09961C8.09961 19.5256 8.32466 20.645 8.77872 21.7L10.6158 20.9094ZM55.8398 36V37H56.8398V36H55.8398ZM51.0586 36H50.0586V37H51.0586V36ZM50.8652 23.1152L49.9368 23.4866L49.9431 23.5024L49.9499 23.518L50.8652 23.1152ZM49.582 21.832L49.1793 22.7473L49.1949 22.7542L49.2106 22.7605L49.582 21.832ZM47.7188 21.832L48.1034 22.7551L48.1125 22.7513L48.1215 22.7473L47.7188 21.832ZM46.9629 22.3418L46.2558 21.6347L46.2462 21.6442L46.2369 21.6541L46.9629 22.3418ZM46.4531 23.1152L45.5378 22.7125L45.531 22.7281L45.5246 22.7438L46.4531 23.1152ZM46.2773 36V37H47.2773V36H46.2773ZM41.4785 36H40.4785V37H41.4785V36ZM41.2852 23.1152L40.3567 23.4866L40.363 23.5024L40.3698 23.518L41.2852 23.1152ZM40.002 21.832L39.5992 22.7473L39.6148 22.7542L39.6306 22.7605L40.002 21.832ZM38.1387 21.832L38.5233 22.7551L38.5324 22.7513L38.5414 22.7473L38.1387 21.832ZM37.3828 22.3418L36.6757 21.6347L36.6662 21.6442L36.6569 21.6541L37.3828 22.3418ZM36.873 23.1152L35.9577 22.7125L35.9509 22.7281L35.9446 22.7438L36.873 23.1152ZM36.6973 36V37H37.6973V36H36.6973ZM31.8984 36H30.8984V37H31.8984V36ZM31.8984 17.1738V16.1738H30.8984V17.1738H31.8984ZM33.0586 17.1738L33.801 16.5039L33.5032 16.1738H33.0586V17.1738ZM34.3594 18.6152L33.617 19.2852L34.2644 20.0026L35.0035 19.3801L34.3594 18.6152ZM36.5566 17.3145L36.9138 18.2485L36.921 18.2457L36.5566 17.3145ZM41.6367 17.332L41.2698 18.2623L41.2743 18.264L41.6367 17.332ZM43.8516 19.0371L43.0641 19.6534L43.8764 20.6914L44.6572 19.6295L43.8516 19.0371ZM46.0312 17.332L45.6466 16.4089L45.6373 16.4129L46.0312 17.332ZM47.332 16.9629L47.488 17.9507L47.5006 17.9487L47.5132 17.9463L47.332 16.9629ZM51.4453 17.4023L51.0484 18.3202L51.0529 18.3221L51.4453 17.4023ZM53.7305 18.9492L53.017 19.6499L53.0233 19.6564L53.0298 19.6627L53.7305 18.9492ZM55.8398 35H51.0586V37H55.8398V35ZM52.0586 36V24.0469H50.0586V36H52.0586ZM52.0586 24.0469C52.0586 23.5837 51.9667 23.1356 51.7805 22.7125L49.9499 23.518C50.0216 23.6808 50.0586 23.8538 50.0586 24.0469H52.0586ZM51.7937 22.7438C51.6263 22.3254 51.3812 21.9533 51.0626 21.6347L49.6484 23.0489C49.7751 23.1756 49.8698 23.3191 49.9368 23.4866L51.7937 22.7438ZM51.0626 21.6347C50.744 21.3161 50.3719 21.0709 49.9534 20.9036L49.2106 22.7605C49.3781 22.8275 49.5217 22.9222 49.6484 23.0489L51.0626 21.6347ZM49.9848 20.9167C49.5616 20.7305 49.1136 20.6387 48.6504 20.6387V22.6387C48.8434 22.6387 49.0165 22.6757 49.1793 22.7473L49.9848 20.9167ZM48.6504 20.6387C48.1872 20.6387 47.7391 20.7305 47.316 20.9167L48.1215 22.7473C48.2843 22.6757 48.4574 22.6387 48.6504 22.6387V20.6387ZM47.3341 20.909C46.9283 21.0781 46.5676 21.3228 46.2558 21.6347L47.67 23.0489C47.8034 22.9155 47.9467 22.8204 48.1034 22.7551L47.3341 20.909ZM46.2369 21.6541C45.9436 21.9637 45.711 22.319 45.5378 22.7125L47.3684 23.518C47.4531 23.3255 47.5603 23.1652 47.6888 23.0295L46.2369 21.6541ZM45.5246 22.7438C45.3583 23.1596 45.2773 23.5967 45.2773 24.0469H47.2773C47.2773 23.8408 47.3135 23.6568 47.3816 23.4866L45.5246 22.7438ZM45.2773 24.0469V36H47.2773V24.0469H45.2773ZM46.2773 35H41.4785V37H46.2773V35ZM42.4785 36V24.0469H40.4785V36H42.4785ZM42.4785 24.0469C42.4785 23.5837 42.3866 23.1356 42.2005 22.7125L40.3698 23.518C40.4415 23.6808 40.4785 23.8538 40.4785 24.0469H42.4785ZM42.2136 22.7438C42.0463 22.3254 41.8011 21.9533 41.4825 21.6347L40.0683 23.0489C40.195 23.1756 40.2897 23.3191 40.3567 23.4866L42.2136 22.7438ZM41.4825 21.6347C41.1639 21.3161 40.7918 21.0709 40.3733 20.9036L39.6306 22.7605C39.7981 22.8275 39.9416 22.9222 40.0683 23.0489L41.4825 21.6347ZM40.4047 20.9167C39.9816 20.7305 39.5335 20.6387 39.0703 20.6387V22.6387C39.2634 22.6387 39.4364 22.6757 39.5992 22.7473L40.4047 20.9167ZM39.0703 20.6387C38.6071 20.6387 38.1591 20.7305 37.7359 20.9167L38.5414 22.7473C38.7042 22.6757 38.8773 22.6387 39.0703 22.6387V20.6387ZM37.7541 20.909C37.3482 21.0781 36.9876 21.3228 36.6757 21.6347L38.0899 23.0489C38.2234 22.9155 38.3667 22.8204 38.5233 22.7551L37.7541 20.909ZM36.6569 21.6541C36.3635 21.9637 36.1309 22.319 35.9577 22.7125L37.7884 23.518C37.873 23.3255 37.9803 23.1652 38.1088 23.0295L36.6569 21.6541ZM35.9446 22.7438C35.7783 23.1596 35.6973 23.5967 35.6973 24.0469H37.6973C37.6973 23.8408 37.7335 23.6568 37.8015 23.4866L35.9446 22.7438ZM35.6973 24.0469V36H37.6973V24.0469H35.6973ZM36.6973 35H31.8984V37H36.6973V35ZM32.8984 36V17.1738H30.8984V36H32.8984ZM31.8984 18.1738H33.0586V16.1738H31.8984V18.1738ZM32.3162 17.8438L33.617 19.2852L35.1018 17.9453L33.801 16.5039L32.3162 17.8438ZM35.0035 19.3801C35.588 18.888 36.2238 18.5123 36.9138 18.2485L36.1995 16.3804C35.2957 16.726 34.4667 17.2175 33.7152 17.8503L35.0035 19.3801ZM36.921 18.2457C37.6137 17.9747 38.328 17.8398 39.0703 17.8398V15.8398C38.0783 15.8398 37.1168 16.0214 36.1922 16.3832L36.921 18.2457ZM39.0703 17.8398C39.8214 17.8398 40.5525 17.9794 41.2699 18.2623L42.0036 16.4018C41.0568 16.0284 40.077 15.8398 39.0703 15.8398V17.8398ZM41.2743 18.264C41.929 18.5187 42.5268 18.967 43.0641 19.6534L44.6391 18.4208C43.9107 17.4901 43.0319 16.8017 41.9992 16.4L41.2743 18.264ZM44.6572 19.6295C44.8954 19.3056 45.1611 19.0369 45.4535 18.8176L44.2535 17.2176C43.796 17.5607 43.3937 17.9717 43.0459 18.4447L44.6572 19.6295ZM45.4535 18.8176C45.768 18.5817 46.0918 18.394 46.4252 18.2512L45.6373 16.4129C45.1504 16.6216 44.689 16.891 44.2535 17.2176L45.4535 18.8176ZM46.4159 18.2551C46.7654 18.1095 47.1223 18.0084 47.488 17.9507L47.1761 15.9751C46.6512 16.058 46.1409 16.203 45.6466 16.409L46.4159 18.2551ZM47.5132 17.9463C47.9014 17.8748 48.2802 17.8398 48.6504 17.8398V15.8398C48.1534 15.8398 47.6533 15.8869 47.1509 15.9794L47.5132 17.9463ZM48.6504 17.8398C49.5175 17.8398 50.3133 18.0023 51.0484 18.3202L51.8422 16.4845C50.843 16.0524 49.7755 15.8398 48.6504 15.8398V17.8398ZM51.0529 18.3221C51.8162 18.6478 52.4677 19.0906 53.017 19.6499L54.4439 18.2485C53.7042 17.4953 52.8322 16.9069 51.8377 16.4826L51.0529 18.3221ZM53.0298 19.6627C53.5891 20.212 54.0319 20.8634 54.3576 21.6268L56.1971 20.8419C55.7728 19.8475 55.1844 18.9755 54.4312 18.2358L53.0298 19.6627ZM54.3576 21.6268C54.6774 22.3764 54.8398 23.1798 54.8398 24.0469H56.8398C56.8398 22.9217 56.6273 21.8502 56.1971 20.8419L54.3576 21.6268ZM54.8398 24.0469V36H56.8398V24.0469H54.8398ZM77.584 36V37H78.584V36H77.584ZM76.4238 36L75.6127 36.5849L75.912 37H76.4238V36ZM74.5605 33.416L75.3717 32.8311L74.7208 31.9285L73.8926 32.6718L74.5605 33.416ZM73.1016 34.5762L73.6738 35.3963L73.6775 35.3937L73.1016 34.5762ZM71.502 35.5078L71.9186 36.4169L71.9264 36.4133L71.9341 36.4096L71.502 35.5078ZM69.7617 36.123L69.5147 35.154L69.5101 35.1552L69.7617 36.123ZM64.2246 35.6836L63.8663 36.6172L63.8694 36.6184L64.2246 35.6836ZM61.166 33.75L60.4637 34.462L60.4735 34.4714L61.166 33.75ZM59.1094 22.3945L60.0335 22.7766L60.0348 22.7735L59.1094 22.3945ZM61.166 19.2305L60.4589 18.5233L60.4542 18.5281L61.166 19.2305ZM64.2246 17.1914L64.6072 18.1153L64.6118 18.1134L64.2246 17.1914ZM73.1191 18.2637L72.5343 19.0749L72.5432 19.0812L73.1191 18.2637ZM74.5605 19.4414L73.8728 20.1674L74.6459 20.8998L75.3283 20.0822L74.5605 19.4414ZM76.4238 17.209V16.209H75.9559L75.6561 16.5682L76.4238 17.209ZM77.584 17.209H78.584V16.209H77.584V17.209ZM72.3633 24.5215L71.4336 24.8898L71.4378 24.9005L71.4423 24.9111L72.3633 24.5215ZM71.3438 22.8867L70.6013 23.5567L70.6096 23.5658L71.3438 22.8867ZM69.8145 21.7441L69.36 22.6349L69.3708 22.6404L69.3817 22.6457L69.8145 21.7441ZM66.1055 21.6387L65.7502 20.7039L65.7439 20.7063L66.1055 21.6387ZM64.5938 22.623L63.8866 21.9159L63.877 21.9257L64.5938 22.623ZM63.5918 24.2402L64.5238 24.6027L64.526 24.5969L63.5918 24.2402ZM63.5918 28.6172L62.6576 28.9739L62.6598 28.9796L63.5918 28.6172ZM64.5938 30.2168L63.877 30.9142L63.8866 30.9239L64.5938 30.2168ZM66.1055 31.2012L65.7439 32.1336L65.7503 32.136L66.1055 31.2012ZM69.8145 31.1133L70.2543 32.0114L70.2617 32.0077L69.8145 31.1133ZM71.3438 29.9707L72.0779 30.6498L72.0861 30.6407L71.3438 29.9707ZM72.3633 28.3359L71.4396 27.9525L71.436 27.9615L72.3633 28.3359ZM77.584 35H76.4238V37H77.584V35ZM77.2349 35.4151L75.3717 32.8311L73.7494 34.0009L75.6127 36.5849L77.2349 35.4151ZM73.8926 32.6718C73.4656 33.055 73.01 33.4174 72.5256 33.7587L73.6775 35.3937C74.2243 35.0084 74.7415 34.5973 75.2285 34.1603L73.8926 32.6718ZM72.5294 33.756C72.0705 34.0762 71.5843 34.3595 71.0698 34.606L71.9341 36.4096C72.5447 36.1171 73.1248 35.7793 73.6737 35.3963L72.5294 33.756ZM71.0853 34.5987C70.5773 34.8316 70.0539 35.0166 69.5147 35.154L70.0087 37.0921C70.6648 36.9248 71.3017 36.6996 71.9186 36.4169L71.0853 34.5987ZM69.5101 35.1552C69.0069 35.2861 68.4938 35.3516 67.9688 35.3516V37.3516C68.6625 37.3516 69.3447 37.2647 70.0134 37.0909L69.5101 35.1552ZM67.9688 35.3516C66.759 35.3516 65.632 35.1486 64.5798 34.7488L63.8694 36.6184C65.161 37.1092 66.5301 37.3516 67.9688 37.3516V35.3516ZM64.583 34.75C63.5447 34.3515 62.6394 33.7782 61.8585 33.0286L60.4735 34.4714C61.4505 35.4093 62.5842 36.1251 63.8663 36.6172L64.583 34.75ZM61.8683 33.0381C61.1057 32.2858 60.4923 31.3592 60.0348 30.2421L58.184 31.0001C58.7343 32.3439 59.492 33.5033 60.4637 34.4619L61.8683 33.0381ZM60.0348 30.2421C59.5882 29.1516 59.3535 27.8834 59.3535 26.4199H57.3535C57.3535 28.0971 57.6227 29.6296 58.184 31.0001L60.0348 30.2421ZM59.3535 26.4199C59.3535 25.0717 59.585 23.8615 60.0335 22.7766L58.1852 22.0124C57.626 23.3651 57.3535 24.8385 57.3535 26.4199H59.3535ZM60.0348 22.7735C60.4931 21.6544 61.1091 20.7119 61.8779 19.9328L60.4542 18.5281C59.4885 19.5068 58.7335 20.6738 58.184 22.0156L60.0348 22.7735ZM61.8731 19.9376C62.6582 19.1525 63.5672 18.5461 64.6072 18.1153L63.842 16.2675C62.5618 16.7977 61.4317 17.5506 60.4589 18.5234L61.8731 19.9376ZM64.6118 18.1134C65.656 17.6748 66.7718 17.4531 67.9688 17.4531V15.4531C66.5172 15.4531 65.137 15.7236 63.8374 16.2694L64.6118 18.1134ZM67.9688 17.4531C68.4938 17.4531 69.0144 17.5186 69.5323 17.6507L70.0263 15.7126C69.3489 15.54 68.6624 15.4531 67.9688 15.4531V17.4531ZM69.5323 17.6507C70.0655 17.7866 70.5836 17.9749 71.0874 18.2163L71.9517 16.4126C71.3305 16.115 70.6884 15.8814 70.0263 15.7126L69.5323 17.6507ZM71.0874 18.2163C71.5966 18.4603 72.0787 18.7464 72.5343 19.0748L73.7039 17.4525C73.1517 17.0544 72.5674 16.7077 71.9517 16.4126L71.0874 18.2163ZM72.5432 19.0812C73.0205 19.4174 73.4635 19.7796 73.8728 20.1674L75.2483 18.7155C74.767 18.2595 74.249 17.8365 73.6951 17.4462L72.5432 19.0812ZM75.3283 20.0822L77.1916 17.8498L75.6561 16.5682L73.7928 18.8006L75.3283 20.0822ZM76.4238 18.209H77.584V16.209H76.4238V18.209ZM76.584 17.209V36H78.584V17.209H76.584ZM73.75 26.4199C73.75 25.6287 73.5938 24.8635 73.2842 24.1318L71.4423 24.9111C71.6484 25.3983 71.75 25.8987 71.75 26.4199H73.75ZM73.293 24.1531C73.0035 23.4227 72.5991 22.7712 72.0779 22.2077L70.6096 23.5658C70.9556 23.9398 71.2308 24.3781 71.4336 24.8898L73.293 24.1531ZM72.0861 22.2168C71.565 21.6393 70.9499 21.1799 70.2472 20.8426L69.3817 22.6457C69.8509 22.8709 70.2553 23.1732 70.6014 23.5567L72.0861 22.2168ZM70.2689 20.8534C69.5514 20.4873 68.78 20.3047 67.9688 20.3047V22.3047C68.47 22.3047 68.9291 22.4151 69.36 22.6349L70.2689 20.8534ZM67.9688 20.3047C67.1969 20.3047 66.4549 20.4361 65.7503 20.7039L66.4607 22.5735C66.9279 22.3959 67.4281 22.3047 67.9688 22.3047V20.3047ZM65.7439 20.7063C65.0407 20.979 64.419 21.3836 63.8866 21.9159L65.3009 23.3302C65.6357 22.9953 66.0218 22.7437 66.467 22.571L65.7439 20.7063ZM63.877 21.9257C63.3478 22.4696 62.9454 23.1296 62.6576 23.8835L64.526 24.5969C64.7303 24.0618 64.996 23.6437 65.3105 23.3204L63.877 21.9257ZM62.6598 23.8778C62.3605 24.6475 62.2227 25.5007 62.2227 26.4199H64.2227C64.2227 25.6985 64.3309 25.0986 64.5238 24.6027L62.6598 23.8778ZM62.2227 26.4199C62.2227 27.3396 62.3606 28.1962 62.6576 28.9739L64.526 28.2605C64.3308 27.7491 64.2227 27.1408 64.2227 26.4199H62.2227ZM62.6598 28.9796C62.9485 29.7221 63.3509 30.3734 63.877 30.9142L65.3105 29.5194C64.9929 29.193 64.7272 28.7779 64.5238 28.2547L62.6598 28.9796ZM63.8866 30.9239C64.419 31.4562 65.0407 31.8609 65.7439 32.1335L66.467 30.2688C66.0218 30.0962 65.6357 29.8446 65.3009 29.5097L63.8866 30.9239ZM65.7503 32.136C66.4549 32.4037 67.1969 32.5352 67.9688 32.5352V30.5352C67.4281 30.5352 66.9279 30.4439 66.4607 30.2664L65.7503 32.136ZM67.9688 32.5352C68.7733 32.5352 69.5395 32.3615 70.2543 32.0113L69.3746 30.2152C68.941 30.4276 68.4767 30.5352 67.9688 30.5352V32.5352ZM70.2617 32.0077C70.9526 31.6622 71.5603 31.2093 72.0779 30.6497L70.6096 29.2917C70.2601 29.6696 69.8482 29.9784 69.3672 30.2189L70.2617 32.0077ZM72.0861 30.6407C72.5994 30.0719 73.0013 29.4266 73.2905 28.7104L71.436 27.9615C71.2331 28.464 70.9553 28.9085 70.6014 29.3007L72.0861 30.6407ZM73.2869 28.7193C73.5938 27.9798 73.75 27.211 73.75 26.4199H71.75C71.75 26.9413 71.6483 27.4499 71.4397 27.9526L73.2869 28.7193ZM86.0566 36V37H87.0566V36H86.0566ZM81.2578 36H80.2578V37H81.2578V36ZM81.2578 17.1738V16.1738H80.2578V17.1738H81.2578ZM82.418 17.1738L83.2339 16.5956L82.935 16.1738H82.418V17.1738ZM84 19.4062L83.1841 19.9844L83.8371 20.9058L84.6727 20.1462L84 19.4062ZM86.6367 17.7891L86.9927 18.7236L87.0024 18.7198L86.6367 17.7891ZM93.9316 17.209H94.9316V16.209H93.9316V17.209ZM93.9316 21.9902V22.9902H94.9316V21.9902H93.9316ZM86.0566 35H81.2578V37H86.0566V35ZM82.2578 36V17.1738H80.2578V36H82.2578ZM81.2578 18.1738H82.418V16.1738H81.2578V18.1738ZM81.6021 17.752L83.1841 19.9844L84.8159 18.8281L83.2339 16.5956L81.6021 17.752ZM84.6727 20.1462C85.3529 19.5278 86.1242 19.0544 86.9927 18.7236L86.2807 16.8546C85.1805 17.2737 84.194 17.8785 83.3273 18.6663L84.6727 20.1462ZM87.0024 18.7198C87.8706 18.3787 88.7661 18.209 89.6953 18.209V16.209C88.5151 16.209 87.3716 16.426 86.2711 16.8583L87.0024 18.7198ZM89.6953 18.209H93.9316V16.209H89.6953V18.209ZM92.9316 17.209V21.9902H94.9316V17.209H92.9316ZM93.9316 20.9902H89.6953V22.9902H93.9316V20.9902ZM89.6953 20.9902C89.064 20.9902 88.4568 21.1084 87.8834 21.3498L88.6595 23.1931C88.9768 23.0596 89.3189 22.9902 89.6953 22.9902V20.9902ZM87.8834 21.3498C87.3239 21.5854 86.8276 21.9145 86.4042 22.3378L87.8184 23.752C88.0513 23.5191 88.3284 23.3325 88.6595 23.1931L87.8834 21.3498ZM86.4042 22.3378C85.9809 22.7612 85.6518 23.2575 85.4163 23.817L87.2595 24.5931C87.3989 24.262 87.5855 23.9849 87.8184 23.752L86.4042 22.3378ZM85.4163 23.817C85.1748 24.3904 85.0566 24.9975 85.0566 25.6289H87.0566C87.0566 25.2525 87.126 24.9103 87.2595 24.5931L85.4163 23.817ZM85.0566 25.6289V36H87.0566V25.6289H85.0566ZM102.334 35.3496L101.934 36.2661L101.943 36.2698L102.334 35.3496ZM99.6445 33.5391L98.932 34.2407L98.9374 34.2462L98.9428 34.2515L99.6445 33.5391ZM97.834 30.8496L96.9137 31.241L96.9176 31.2499L97.834 30.8496ZM97.1836 21.9902H98.1836V20.9902H97.1836V21.9902ZM94.8457 21.9902H93.8457V22.9902H94.8457V21.9902ZM94.8457 17.209V16.209H93.8457V17.209H94.8457ZM97.1836 17.209V18.209H98.1836V17.209H97.1836ZM97.1836 9.68555V8.68555H96.1836V9.68555H97.1836ZM101.965 9.68555H102.965V8.68555H101.965V9.68555ZM101.965 17.209H100.965V18.209H101.965V17.209ZM109.242 17.209H110.242V16.209H109.242V17.209ZM109.242 21.9902V22.9902H110.242V21.9902H109.242ZM101.965 21.9902V20.9902H100.965V21.9902H101.965ZM102.246 29.0039L101.324 29.392L101.328 29.4008L102.246 29.0039ZM104.18 30.9375L103.771 31.8503L103.781 31.8548L103.792 31.8591L104.18 30.9375ZM109.242 31.2188H110.242V30.2188H109.242V31.2188ZM109.242 36V37H110.242V36H109.242ZM105.604 35C104.571 35 103.615 34.8079 102.725 34.4294L101.943 36.2698C103.092 36.7585 104.315 37 105.604 37V35ZM102.734 34.4332C101.824 34.0356 101.03 33.5003 100.346 32.8266L98.9428 34.2515C99.8056 35.1012 100.805 35.773 101.934 36.266L102.734 34.4332ZM100.357 32.8374C99.6833 32.1533 99.148 31.3596 98.7504 30.4493L96.9176 31.2499C97.4106 32.3787 98.0823 33.378 98.932 34.2407L100.357 32.8374ZM98.7542 30.4582C98.3757 29.5683 98.1836 28.6122 98.1836 27.5801H96.1836C96.1836 28.8683 96.425 30.0919 96.9137 31.241L98.7542 30.4582ZM98.1836 27.5801V21.9902H96.1836V27.5801H98.1836ZM97.1836 20.9902H94.8457V22.9902H97.1836V20.9902ZM95.8457 21.9902V17.209H93.8457V21.9902H95.8457ZM94.8457 18.209H97.1836V16.209H94.8457V18.209ZM98.1836 17.209V9.68555H96.1836V17.209H98.1836ZM97.1836 10.6855H101.965V8.68555H97.1836V10.6855ZM100.965 9.68555V17.209H102.965V9.68555H100.965ZM101.965 18.209H109.242V16.209H101.965V18.209ZM108.242 17.209V21.9902H110.242V17.209H108.242ZM109.242 20.9902H101.965V22.9902H109.242V20.9902ZM100.965 21.9902V27.5801H102.965V21.9902H100.965ZM100.965 27.5801C100.965 28.2114 101.083 28.8186 101.324 29.392L103.168 28.6158C103.034 28.2986 102.965 27.9565 102.965 27.5801H100.965ZM101.328 29.4008C101.565 29.948 101.893 30.4347 102.312 30.8536L103.727 29.4394C103.489 29.2021 103.302 28.927 103.164 28.607L101.328 29.4008ZM102.312 30.8536C102.731 31.2723 103.22 31.6039 103.771 31.8503L104.588 30.0247C104.248 29.8727 103.964 29.6769 103.727 29.4394L102.312 30.8536ZM103.792 31.8591C104.365 32.1006 104.972 32.2188 105.604 32.2188V30.2188C105.227 30.2188 104.885 30.1494 104.568 30.0159L103.792 31.8591ZM105.604 32.2188H109.242V30.2188H105.604V32.2188ZM108.242 31.2188V36H110.242V31.2188H108.242ZM109.242 35H105.604V37H109.242V35ZM117.504 36V37H118.504V36H117.504ZM112.459 36H111.459V37H112.459V36ZM112.459 10.793V9.79297H111.459V10.793H112.459ZM130.107 10.793H131.107V9.79297H130.107V10.793ZM130.107 15.8379V16.8379H131.107V15.8379H130.107ZM117.504 15.8379V14.8379H116.504V15.8379H117.504ZM117.504 20.8828H116.504V21.8828H117.504V20.8828ZM125.062 20.8828H126.062V19.8828H125.062V20.8828ZM125.062 25.9277V26.9277H126.062V25.9277H125.062ZM117.504 25.9277V24.9277H116.504V25.9277H117.504ZM117.504 35H112.459V37H117.504V35ZM113.459 36V10.793H111.459V36H113.459ZM112.459 11.793H130.107V9.79297H112.459V11.793ZM129.107 10.793V15.8379H131.107V10.793H129.107ZM130.107 14.8379H117.504V16.8379H130.107V14.8379ZM116.504 15.8379V20.8828H118.504V15.8379H116.504ZM117.504 21.8828H125.062V19.8828H117.504V21.8828ZM124.062 20.8828V25.9277H126.062V20.8828H124.062ZM125.062 24.9277H117.504V26.9277H125.062V24.9277ZM116.504 25.9277V36H118.504V25.9277H116.504ZM137.473 31.3945L136.703 30.7559L135.75 31.904L137.174 32.349L137.473 31.3945ZM138.035 31.5176L137.911 32.5099L137.942 32.5137L137.973 32.5156L138.035 31.5176ZM141.164 30.7969L141.694 31.6449L141.701 31.6405L141.164 30.7969ZM142.184 29.918L141.428 29.263L141.426 29.265L142.184 29.918ZM142.922 28.7578L143.631 28.0525L142.601 27.0176L142.008 28.3517L142.922 28.7578ZM146.438 32.291L147.255 32.8665L147.738 32.1804L147.146 31.5857L146.438 32.291ZM144.891 33.9961L144.239 33.2379L144.231 33.2445L144.891 33.9961ZM143.01 35.2793L142.55 34.3911L142.544 34.3944L143.01 35.2793ZM140.883 36.0703L140.655 35.0967L140.646 35.0988L140.637 35.1011L140.883 36.0703ZM134.854 35.6133L134.463 36.5339L134.466 36.5353L134.854 35.6133ZM131.795 33.5566L131.083 34.259L131.088 34.2637L131.795 33.5566ZM129.738 30.4277L128.814 30.8098L128.815 30.813L129.738 30.4277ZM131.795 19.1953L131.093 18.4835L131.088 18.4882L131.795 19.1953ZM134.854 17.1738L134.474 16.2486L134.471 16.2499L134.854 17.1738ZM143.027 17.543L142.562 18.4279L142.568 18.4312L143.027 17.543ZM144.926 18.8438L144.265 19.5945L144.274 19.6019L144.926 18.8438ZM146.473 20.5488L147.242 21.1874L147.731 20.5988L147.29 19.9733L146.473 20.5488ZM139.934 21.498L140.732 22.0999L141.542 21.025L140.279 20.5597L139.934 21.498ZM139.266 21.3398L139.155 22.3337L139.161 22.3343L139.266 21.3398ZM136.734 21.6738L137.112 22.5997L137.122 22.5958L136.734 21.6738ZM135.223 22.6934L134.506 21.9957L134.497 22.0056L135.223 22.6934ZM134.221 24.3105L135.15 24.6789L135.153 24.673L134.221 24.3105ZM133.869 27.0176L132.871 27.0701L132.872 27.0963L132.875 27.1223L133.869 27.0176ZM133.957 27.7031L132.968 27.8515L132.972 27.8805L132.978 27.9091L133.957 27.7031ZM134.344 28.916L133.476 29.4122L134.229 30.7303L135.142 29.5178L134.344 28.916ZM137.174 32.349C137.416 32.4247 137.662 32.4787 137.911 32.5099L138.159 30.5253C138.033 30.5095 137.904 30.4816 137.771 30.4401L137.174 32.349ZM137.973 32.5156C138.181 32.5286 138.389 32.5352 138.598 32.5352V30.5352C138.431 30.5352 138.264 30.5299 138.098 30.5195L137.973 32.5156ZM138.598 32.5352C139.159 32.5352 139.707 32.4577 140.236 32.3003L139.666 30.3833C139.328 30.4837 138.973 30.5352 138.598 30.5352V32.5352ZM140.236 32.3003C140.754 32.1464 141.241 31.928 141.694 31.6449L140.634 29.9489C140.337 30.1345 140.016 30.2794 139.666 30.3833L140.236 32.3003ZM141.701 31.6405C142.168 31.3431 142.583 30.9864 142.941 30.5709L141.426 29.265C141.198 29.5293 140.933 29.7584 140.627 29.9532L141.701 31.6405ZM142.939 30.5729C143.308 30.1473 143.608 29.6768 143.836 29.164L142.008 28.3517C141.861 28.6826 141.668 28.9856 141.428 29.263L142.939 30.5729ZM142.213 29.4632L145.729 32.9964L147.146 31.5857L143.631 28.0525L142.213 29.4632ZM145.62 31.7155C145.222 32.2809 144.762 32.7879 144.239 33.2379L145.543 34.7543C146.191 34.1965 146.763 33.5667 147.255 32.8665L145.62 31.7155ZM144.231 33.2445C143.718 33.6948 143.158 34.0767 142.55 34.3911L143.469 36.1675C144.221 35.7788 144.915 35.3052 145.55 34.7477L144.231 33.2445ZM142.544 34.3944C141.953 34.7056 141.324 34.9399 140.655 35.0967L141.111 37.0439C141.942 36.8492 142.731 36.5561 143.476 36.1642L142.544 34.3944ZM140.637 35.1011C139.981 35.2675 139.302 35.3516 138.598 35.3516V37.3516C139.463 37.3516 140.308 37.2481 141.129 37.0395L140.637 35.1011ZM138.598 35.3516C137.401 35.3516 136.285 35.1298 135.241 34.6913L134.466 36.5353C135.766 37.0811 137.146 37.3516 138.598 37.3516V35.3516ZM135.244 34.6927C134.2 34.25 133.289 33.6363 132.502 32.8495L131.088 34.2637C132.059 35.2348 133.186 35.9922 134.463 36.5339L135.244 34.6927ZM132.507 32.8543C131.735 32.0719 131.119 31.1384 130.661 30.0425L128.815 30.813C129.366 32.1311 130.121 33.2835 131.083 34.259L132.507 32.8543ZM130.662 30.0456C130.213 28.9598 129.982 27.7553 129.982 26.4199H127.982C127.982 27.9908 128.255 29.4581 128.814 30.8098L130.662 30.0456ZM129.982 26.4199C129.982 25.0461 130.215 23.8174 130.664 22.7208L128.813 21.9628C128.254 23.3271 127.982 24.8171 127.982 26.4199H129.982ZM130.664 22.7208C131.122 21.6027 131.736 20.6681 132.502 19.9024L131.088 18.4882C130.119 19.4569 129.363 20.62 128.813 21.9628L130.664 22.7208ZM132.497 19.9071C133.283 19.1322 134.193 18.5297 135.236 18.0977L134.471 16.2499C133.194 16.7789 132.065 17.5241 131.093 18.4835L132.497 19.9071ZM135.233 18.0991C136.279 17.6702 137.398 17.4531 138.598 17.4531V15.4531C137.149 15.4531 135.772 15.7165 134.474 16.2486L135.233 18.0991ZM138.598 17.4531C139.302 17.4531 139.988 17.5372 140.658 17.7045L141.143 15.7642C140.312 15.5566 139.463 15.4531 138.598 15.4531V17.4531ZM140.658 17.7045C141.332 17.8731 141.966 18.1144 142.562 18.4279L143.493 16.6581C142.753 16.2684 141.969 15.9706 141.143 15.7642L140.658 17.7045ZM142.568 18.4312C143.174 18.7445 143.739 19.1316 144.265 19.5945L145.586 18.093C144.94 17.5246 144.24 17.0445 143.487 16.6548L142.568 18.4312ZM144.274 19.6019C144.797 20.052 145.257 20.5589 145.655 21.1243L147.29 19.9733C146.798 19.2731 146.226 18.6434 145.578 18.0856L144.274 19.6019ZM145.703 19.9102L136.703 30.7559L138.242 32.0331L147.242 21.1874L145.703 19.9102ZM140.279 20.5597C139.984 20.4508 139.68 20.3779 139.37 20.3453L139.161 22.3343C139.296 22.3486 139.438 22.3813 139.588 22.4364L140.279 20.5597ZM139.376 20.346C139.125 20.3181 138.865 20.3047 138.598 20.3047V22.3047C138.799 22.3047 138.984 22.3148 139.155 22.3337L139.376 20.346ZM138.598 20.3047C137.813 20.3047 137.06 20.4526 136.347 20.7518L137.122 22.5958C137.581 22.4029 138.07 22.3047 138.598 22.3047V20.3047ZM136.356 20.748C135.655 21.0345 135.036 21.4521 134.506 21.9957L135.939 23.391C136.277 23.044 136.666 22.782 137.112 22.5997L136.356 20.748ZM134.497 22.0056C133.977 22.5546 133.577 23.2075 133.289 23.9481L135.153 24.673C135.357 24.148 135.625 23.7228 135.949 23.3811L134.497 22.0056ZM133.291 23.9422C132.991 24.6992 132.852 25.5304 132.852 26.4199H134.852C134.852 25.7392 134.958 25.1641 135.15 24.6789L133.291 23.9422ZM132.852 26.4199C132.852 26.6171 132.858 26.8344 132.871 27.0701L134.868 26.965C134.857 26.7555 134.852 26.5743 134.852 26.4199H132.852ZM132.875 27.1223C132.9 27.3603 132.931 27.6034 132.968 27.8515L134.946 27.5548C134.913 27.3341 134.885 27.1201 134.864 26.9129L132.875 27.1223ZM132.978 27.9091C133.03 28.1517 133.087 28.3891 133.152 28.6212L135.079 28.0859C135.026 27.8961 134.978 27.6999 134.936 27.4971L132.978 27.9091ZM133.152 28.6212C133.229 28.8996 133.335 29.1659 133.476 29.4122L135.212 28.4199C135.165 28.338 135.119 28.2293 135.079 28.0859L133.152 28.6212ZM135.142 29.5178L140.732 22.0999L139.135 20.8962L133.545 28.3142L135.142 29.5178ZM153.697 36V37H154.697V36H153.697ZM148.898 36H147.898V37H148.898V36ZM148.898 17.1738V16.1738H147.898V17.1738H148.898ZM150.059 17.1738L150.815 16.5195L150.516 16.1738H150.059V17.1738ZM151.641 19.002L150.884 19.6563L151.555 20.4312L152.313 19.7419L151.641 19.002ZM154.26 17.3848L154.62 18.3178L154.625 18.3155L154.26 17.3848ZM160.588 17.4727L160.188 18.3891L160.197 18.3929L160.588 17.4727ZM163.26 19.2832L162.547 19.9849L162.553 19.9903L163.26 19.2832ZM165.053 21.9727L164.131 22.3603L164.136 22.3729L165.053 21.9727ZM165.721 36V37H166.721V36H165.721ZM160.922 36H159.922V37H160.922V36ZM160.641 23.8535L159.719 24.2416L159.723 24.2504L160.641 23.8535ZM153.979 23.8535L154.896 24.2504L154.9 24.2416L153.979 23.8535ZM153.697 35H148.898V37H153.697V35ZM149.898 36V17.1738H147.898V36H149.898ZM148.898 18.1738H150.059V16.1738H148.898V18.1738ZM149.302 17.8282L150.884 19.6563L152.397 18.3476L150.815 16.5195L149.302 17.8282ZM152.313 19.7419C152.996 19.1217 153.763 18.6482 154.619 18.3178L153.9 16.4517C152.812 16.8713 151.833 17.476 150.968 18.262L152.313 19.7419ZM154.625 18.3155C155.492 17.9749 156.394 17.8047 157.336 17.8047V15.8047C156.145 15.8047 154.996 16.0211 153.894 16.454L154.625 18.3155ZM157.336 17.8047C158.351 17.8047 159.298 18.0007 160.188 18.3891L160.988 16.5563C159.838 16.054 158.618 15.8047 157.336 15.8047V17.8047ZM160.197 18.3929C161.098 18.7764 161.879 19.3065 162.547 19.9849L163.972 18.5815C163.117 17.713 162.117 17.0361 160.979 16.5524L160.197 18.3929ZM162.553 19.9903C163.219 20.6569 163.746 21.4437 164.131 22.3602L165.975 21.5851C165.493 20.4391 164.824 19.4329 163.967 18.5761L162.553 19.9903ZM164.136 22.3729C164.524 23.2608 164.721 24.2138 164.721 25.2422H166.721C166.721 23.9503 166.472 22.7236 165.969 21.5724L164.136 22.3729ZM164.721 25.2422V36H166.721V25.2422H164.721ZM165.721 35H160.922V37H165.721V35ZM161.922 36V25.2422H159.922V36H161.922ZM161.922 25.2422C161.922 24.6193 161.802 24.0208 161.558 23.4566L159.723 24.2504C159.854 24.5535 159.922 24.8807 159.922 25.2422H161.922ZM161.562 23.4655C161.327 22.9059 160.998 22.4096 160.574 21.9863L159.16 23.4005C159.393 23.6334 159.58 23.9105 159.719 24.2416L161.562 23.4655ZM160.574 21.9863C160.155 21.5673 159.669 21.2387 159.122 21.0021L158.328 22.8378C158.648 22.9761 158.923 23.1632 159.16 23.4005L160.574 21.9863ZM159.122 21.0021C158.557 20.7581 157.959 20.6387 157.336 20.6387V22.6387C157.697 22.6387 158.025 22.7067 158.328 22.8378L159.122 21.0021ZM157.336 20.6387C156.705 20.6387 156.097 20.7569 155.524 20.9983L156.3 22.8416C156.617 22.708 156.959 22.6387 157.336 22.6387V20.6387ZM155.524 20.9983C154.965 21.2339 154.468 21.5629 154.045 21.9863L155.459 23.4005C155.692 23.1676 155.969 22.981 156.3 22.8416L155.524 20.9983ZM154.045 21.9863C153.621 22.4096 153.292 22.9059 153.057 23.4655L154.9 24.2416C155.04 23.9105 155.226 23.6334 155.459 23.4005L154.045 21.9863ZM153.061 23.4566C152.817 24.0208 152.697 24.6193 152.697 25.2422H154.697C154.697 24.8807 154.765 24.5535 154.896 24.2504L153.061 23.4566ZM152.697 25.2422V36H154.697V25.2422H152.697ZM185.602 20.918L186.31 21.6233L186.856 21.0754L186.463 20.4097L185.602 20.918ZM182.086 24.4512L181.144 24.7875L181.677 26.2798L182.795 25.1565L182.086 24.4512ZM181.365 23.1328L180.571 23.7403L180.575 23.746L180.58 23.7517L181.365 23.1328ZM180.328 22.1309L179.744 22.9429L179.75 22.9471L179.756 22.9513L180.328 22.1309ZM175.863 21.709L175.445 20.8005L175.438 20.8037L175.863 21.709ZM174.352 22.8516L173.601 22.1905L173.6 22.1918L174.352 22.8516ZM174.352 30.1465L173.635 30.8439L173.644 30.8536L174.352 30.1465ZM175.863 31.166L175.469 32.0852L175.476 32.088L175.863 31.166ZM180.293 30.7969L180.823 31.6449L180.83 31.6405L180.293 30.7969ZM181.312 29.918L180.557 29.263L180.555 29.265L181.312 29.918ZM182.051 28.7578L182.76 28.0525L181.73 27.0176L181.137 28.3517L182.051 28.7578ZM185.566 32.291L186.384 32.8665L186.867 32.1804L186.275 31.5857L185.566 32.291ZM184.02 33.9961L183.367 33.2379L183.36 33.2445L184.02 33.9961ZM182.139 35.2793L181.679 34.3911L181.673 34.3944L182.139 35.2793ZM180.012 36.0703L179.784 35.0967L179.775 35.0988L179.766 35.1011L180.012 36.0703ZM173.982 35.6133L173.584 36.5306L173.595 36.5353L173.982 35.6133ZM170.924 33.5566L170.217 34.2638L170.221 34.2685L170.924 33.5566ZM170.924 19.4766L170.194 18.7926L170.194 18.7929L170.924 19.4766ZM173.982 17.2617L173.565 16.3532L173.561 16.3548L173.982 17.2617ZM180.029 16.752L179.773 17.7184L179.776 17.7194L180.029 16.752ZM182.191 17.6309L181.697 18.5L181.706 18.505L181.715 18.5099L182.191 17.6309ZM184.09 19.0195L183.398 19.7412L183.405 19.7482L184.09 19.0195ZM184.893 20.2126L181.377 23.7458L182.795 25.1565L186.31 21.6233L184.893 20.2126ZM183.028 24.1148C182.818 23.5269 182.526 22.9909 182.151 22.5139L180.58 23.7517C180.813 24.0482 181.003 24.391 181.144 24.7875L183.028 24.1148ZM182.16 22.5254C181.796 22.0501 181.377 21.6427 180.9 21.3105L179.756 22.9513C180.053 23.1581 180.325 23.4186 180.571 23.7403L182.16 22.5254ZM180.912 21.3188C180.45 20.9867 179.944 20.7342 179.399 20.562L178.797 22.4692C179.142 22.5783 179.457 22.7359 179.744 22.9429L180.912 21.3188ZM179.399 20.562C178.856 20.3905 178.297 20.3047 177.727 20.3047V22.3047C178.094 22.3047 178.449 22.3595 178.797 22.4692L179.399 20.562ZM177.727 20.3047C176.929 20.3047 176.165 20.4696 175.445 20.8005L176.281 22.6175C176.734 22.4093 177.212 22.3047 177.727 22.3047V20.3047ZM175.438 20.8037C174.736 21.1335 174.122 21.5991 173.601 22.1905L175.102 23.5126C175.448 23.1197 175.842 22.8235 176.288 22.6142L175.438 20.8037ZM173.6 22.1918C173.089 22.7744 172.695 23.4583 172.411 24.2285L174.288 24.9199C174.496 24.3542 174.771 23.8896 175.103 23.5114L173.6 22.1918ZM172.411 24.2285C172.119 25.0211 171.98 25.8784 171.98 26.7891H173.98C173.98 26.0826 174.088 25.4632 174.288 24.9199L172.411 24.2285ZM171.98 26.7891C171.98 27.5738 172.128 28.3237 172.43 29.0287L174.269 28.2408C174.079 27.7973 173.98 27.3168 173.98 26.7891H171.98ZM172.43 29.0287C172.723 29.7119 173.125 30.3195 173.635 30.8438L175.068 29.4491C174.735 29.1063 174.468 28.7061 174.269 28.2408L172.43 29.0287ZM173.644 30.8536C174.17 31.3789 174.78 31.7899 175.469 32.0852L176.257 30.2469C175.798 30.0499 175.401 29.7813 175.059 29.4394L173.644 30.8536ZM175.476 32.088C176.189 32.3873 176.942 32.5352 177.727 32.5352V30.5352C177.199 30.5352 176.71 30.4369 176.251 30.244L175.476 32.088ZM177.727 32.5352C178.288 32.5352 178.836 32.4577 179.365 32.3003L178.795 30.3833C178.457 30.4837 178.102 30.5352 177.727 30.5352V32.5352ZM179.365 32.3003C179.883 32.1464 180.37 31.928 180.823 31.6449L179.763 29.9489C179.466 30.1345 179.144 30.2794 178.795 30.3833L179.365 32.3003ZM180.83 31.6405C181.297 31.3431 181.712 30.9864 182.07 30.5709L180.555 29.265C180.327 29.5293 180.062 29.7584 179.756 29.9532L180.83 31.6405ZM182.068 30.5729C182.437 30.1473 182.737 29.6768 182.965 29.164L181.137 28.3517C180.99 28.6826 180.797 28.9856 180.557 29.263L182.068 30.5729ZM181.342 29.4632L184.858 32.9964L186.275 31.5857L182.76 28.0525L181.342 29.4632ZM184.749 31.7155C184.351 32.2809 183.891 32.7879 183.367 33.2379L184.672 34.7543C185.32 34.1965 185.891 33.5667 186.384 32.8665L184.749 31.7155ZM183.36 33.2445C182.847 33.6948 182.287 34.0767 181.679 34.3911L182.598 36.1675C183.35 35.7788 184.044 35.3052 184.679 34.7477L183.36 33.2445ZM181.673 34.3944C181.082 34.7056 180.453 34.9399 179.784 35.0967L180.24 37.0439C181.071 36.8492 181.86 36.5561 182.604 36.1642L181.673 34.3944ZM179.766 35.1011C179.11 35.2675 178.431 35.3516 177.727 35.3516V37.3516C178.592 37.3516 179.437 37.2481 180.258 37.0395L179.766 35.1011ZM177.727 35.3516C176.53 35.3516 175.414 35.1298 174.37 34.6913L173.595 36.5353C174.895 37.0811 176.275 37.3516 177.727 37.3516V35.3516ZM174.381 34.6961C173.331 34.2401 172.415 33.6232 171.626 32.8448L170.221 34.2685C171.19 35.2244 172.314 35.9787 173.584 36.5305L174.381 34.6961ZM171.631 32.8495C170.855 32.0739 170.24 31.1659 169.784 30.1172L167.95 30.914C168.502 32.1857 169.258 33.305 170.217 34.2637L171.631 32.8495ZM169.784 30.1172C169.338 29.0887 169.111 27.9828 169.111 26.7891H167.111C167.111 28.2438 167.389 29.6223 167.95 30.914L169.784 30.1172ZM169.111 26.7891C169.111 25.4668 169.342 24.2466 169.795 23.119L167.939 22.3732C167.385 23.7534 167.111 25.2285 167.111 26.7891H169.111ZM169.795 23.119C170.256 21.9724 170.877 20.9898 171.654 20.1602L170.194 18.7929C169.237 19.8149 168.486 21.0119 167.939 22.3732L169.795 23.119ZM171.653 20.1605C172.445 19.3159 173.36 18.6535 174.404 18.1686L173.561 16.3548C172.284 16.9481 171.16 17.7622 170.194 18.7926L171.653 20.1605ZM174.4 18.1702C175.438 17.6931 176.543 17.4531 177.727 17.4531V15.4531C176.262 15.4531 174.871 15.7522 173.565 16.3532L174.4 18.1702ZM177.727 17.4531C178.426 17.4531 179.107 17.5417 179.773 17.7184L180.286 15.7855C179.451 15.5637 178.597 15.4531 177.727 15.4531V17.4531ZM179.776 17.7194C180.454 17.8967 181.094 18.1568 181.697 18.5L182.686 16.7617C181.93 16.3315 181.128 16.0056 180.282 15.7845L179.776 17.7194ZM181.715 18.5099C182.327 18.8418 182.887 19.2515 183.398 19.7412L184.782 18.2978C184.144 17.686 183.439 17.1699 182.668 16.7518L181.715 18.5099ZM183.405 19.7482C183.92 20.2321 184.365 20.7902 184.74 21.4262L186.463 20.4097C185.994 19.6161 185.432 18.9085 184.775 18.2909L183.405 19.7482ZM195.164 31.3945L194.395 30.7559L193.442 31.904L194.866 32.349L195.164 31.3945ZM195.727 31.5176L195.603 32.5099L195.633 32.5137L195.664 32.5156L195.727 31.5176ZM198.855 30.7969L199.385 31.6449L199.392 31.6405L198.855 30.7969ZM199.875 29.918L199.119 29.263L199.118 29.265L199.875 29.918ZM200.613 28.7578L201.322 28.0525L200.292 27.0176L199.699 28.3517L200.613 28.7578ZM204.129 32.291L204.947 32.8665L205.43 32.1804L204.838 31.5857L204.129 32.291ZM202.582 33.9961L201.93 33.2379L201.922 33.2445L202.582 33.9961ZM200.701 35.2793L200.242 34.3911L200.235 34.3944L200.701 35.2793ZM198.574 36.0703L198.346 35.0967L198.337 35.0988L198.328 35.1011L198.574 36.0703ZM192.545 35.6133L192.154 36.5339L192.158 36.5353L192.545 35.6133ZM189.486 33.5566L188.774 34.259L188.779 34.2637L189.486 33.5566ZM187.43 30.4277L186.506 30.8098L186.507 30.813L187.43 30.4277ZM189.486 19.1953L188.784 18.4835L188.779 18.4882L189.486 19.1953ZM192.545 17.1738L192.166 16.2486L192.162 16.2499L192.545 17.1738ZM200.719 17.543L200.253 18.4279L200.259 18.4312L200.719 17.543ZM202.617 18.8438L201.957 19.5945L201.965 19.6019L202.617 18.8438ZM204.164 20.5488L204.934 21.1874L205.422 20.5988L204.982 19.9733L204.164 20.5488ZM197.625 21.498L198.424 22.0999L199.234 21.025L197.971 20.5597L197.625 21.498ZM196.957 21.3398L196.847 22.3337L196.852 22.3343L196.957 21.3398ZM194.426 21.6738L194.804 22.5997L194.813 22.5958L194.426 21.6738ZM192.914 22.6934L192.198 21.9957L192.188 22.0056L192.914 22.6934ZM191.912 24.3105L192.842 24.6789L192.844 24.673L191.912 24.3105ZM191.561 27.0176L190.562 27.0701L190.563 27.0963L190.566 27.1223L191.561 27.0176ZM191.648 27.7031L190.66 27.8515L190.664 27.8805L190.67 27.9091L191.648 27.7031ZM192.035 28.916L191.167 29.4122L191.92 30.7303L192.834 29.5178L192.035 28.916ZM194.866 32.349C195.108 32.4247 195.354 32.4787 195.603 32.5099L195.851 30.5253C195.724 30.5095 195.595 30.4816 195.462 30.4401L194.866 32.349ZM195.664 32.5156C195.872 32.5286 196.081 32.5352 196.289 32.5352V30.5352C196.122 30.5352 195.956 30.5299 195.789 30.5195L195.664 32.5156ZM196.289 32.5352C196.851 32.5352 197.398 32.4577 197.928 32.3003L197.358 30.3833C197.02 30.4837 196.665 30.5352 196.289 30.5352V32.5352ZM197.928 32.3003C198.445 32.1464 198.932 31.928 199.385 31.6449L198.325 29.9489C198.029 30.1345 197.707 30.2794 197.358 30.3833L197.928 32.3003ZM199.392 31.6405C199.86 31.3431 200.274 30.9864 200.632 30.5709L199.118 29.265C198.89 29.5293 198.625 29.7584 198.319 29.9532L199.392 31.6405ZM200.631 30.5729C201 30.1473 201.299 29.6768 201.527 29.164L199.699 28.3517C199.552 28.6826 199.36 28.9856 199.119 29.263L200.631 30.5729ZM199.904 29.4632L203.42 32.9964L204.838 31.5857L201.322 28.0525L199.904 29.4632ZM203.311 31.7155C202.913 32.2809 202.453 32.7879 201.93 33.2379L203.234 34.7543C203.883 34.1965 204.454 33.5667 204.947 32.8665L203.311 31.7155ZM201.922 33.2445C201.409 33.6948 200.85 34.0767 200.242 34.3911L201.161 36.1675C201.912 35.7788 202.606 35.3052 203.242 34.7477L201.922 33.2445ZM200.235 34.3944C199.644 34.7056 199.015 34.9399 198.346 35.0967L198.802 37.0439C199.633 36.8492 200.422 36.5561 201.167 36.1642L200.235 34.3944ZM198.328 35.1011C197.673 35.2675 196.994 35.3516 196.289 35.3516V37.3516C197.155 37.3516 197.999 37.2481 198.82 37.0395L198.328 35.1011ZM196.289 35.3516C195.092 35.3516 193.976 35.1298 192.932 34.6913L192.158 36.5353C193.457 37.0811 194.838 37.3516 196.289 37.3516V35.3516ZM192.935 34.6927C191.892 34.25 190.98 33.6363 190.193 32.8495L188.779 34.2637C189.75 35.2348 190.878 35.9922 192.154 36.5339L192.935 34.6927ZM190.198 32.8543C189.426 32.0719 188.81 31.1384 188.352 30.0425L186.507 30.813C187.057 32.1311 187.812 33.2835 188.774 34.259L190.198 32.8543ZM188.354 30.0456C187.905 28.9598 187.674 27.7553 187.674 26.4199H185.674C185.674 27.9908 185.947 29.4581 186.506 30.8098L188.354 30.0456ZM187.674 26.4199C187.674 25.0461 187.906 23.8174 188.355 22.7208L186.504 21.9628C185.946 23.3271 185.674 24.8171 185.674 26.4199H187.674ZM188.355 22.7208C188.813 21.6027 189.428 20.6681 190.193 19.9024L188.779 18.4882C187.811 19.4569 187.054 20.62 186.504 21.9628L188.355 22.7208ZM190.189 19.9071C190.974 19.1322 191.885 18.5297 192.928 18.0977L192.162 16.2499C190.885 16.7789 189.756 17.5241 188.784 18.4835L190.189 19.9071ZM192.924 18.0991C193.97 17.6702 195.089 17.4531 196.289 17.4531V15.4531C194.841 15.4531 193.463 15.7165 192.166 16.2486L192.924 18.0991ZM196.289 17.4531C196.994 17.4531 197.68 17.5372 198.349 17.7045L198.834 15.7642C198.004 15.5566 197.155 15.4531 196.289 15.4531V17.4531ZM198.349 17.7045C199.024 17.8731 199.657 18.1144 200.253 18.4279L201.184 16.6581C200.444 16.2684 199.66 15.9706 198.834 15.7642L198.349 17.7045ZM200.259 18.4312C200.865 18.7445 201.431 19.1316 201.957 19.5945L203.278 18.093C202.632 17.5246 201.932 17.0445 201.178 16.6548L200.259 18.4312ZM201.965 19.6019C202.488 20.052 202.948 20.5589 203.346 21.1243L204.982 19.9733C204.489 19.2731 203.918 18.6434 203.269 18.0856L201.965 19.6019ZM203.395 19.9102L194.395 30.7559L195.934 32.0331L204.934 21.1874L203.395 19.9102ZM197.971 20.5597C197.675 20.4508 197.372 20.3779 197.062 20.3453L196.852 22.3343C196.988 22.3486 197.13 22.3813 197.279 22.4364L197.971 20.5597ZM197.067 20.346C196.816 20.3181 196.557 20.3047 196.289 20.3047V22.3047C196.49 22.3047 196.676 22.3148 196.847 22.3337L197.067 20.346ZM196.289 20.3047C195.504 20.3047 194.751 20.4526 194.039 20.7518L194.813 22.5958C195.272 22.4029 195.761 22.3047 196.289 22.3047V20.3047ZM194.048 20.748C193.346 21.0345 192.727 21.4521 192.198 21.9957L193.631 23.391C193.968 23.044 194.357 22.782 194.804 22.5997L194.048 20.748ZM192.188 22.0056C191.668 22.5546 191.268 23.2075 190.98 23.9481L192.844 24.673C193.048 24.148 193.316 23.7228 193.64 23.3811L192.188 22.0056ZM190.982 23.9422C190.682 24.6992 190.543 25.5304 190.543 26.4199H192.543C192.543 25.7392 192.65 25.1641 192.842 24.6789L190.982 23.9422ZM190.543 26.4199C190.543 26.6171 190.55 26.8344 190.562 27.0701L192.559 26.965C192.548 26.7555 192.543 26.5743 192.543 26.4199H190.543ZM190.566 27.1223C190.591 27.3603 190.622 27.6034 190.66 27.8515L192.637 27.5548C192.604 27.3341 192.577 27.1201 192.555 26.9129L190.566 27.1223ZM190.67 27.9091C190.721 28.1517 190.779 28.3891 190.843 28.6212L192.77 28.0859C192.717 27.8961 192.67 27.6999 192.627 27.4971L190.67 27.9091ZM190.843 28.6212C190.92 28.8996 191.026 29.1659 191.167 29.4122L192.903 28.4199C192.857 28.338 192.81 28.2293 192.77 28.0859L190.843 28.6212ZM192.834 29.5178L198.424 22.0999L196.826 20.8962L191.237 28.3142L192.834 29.5178Z" fill="#FF6F00" mask="url(#path-3-outside-1_12_46)"/>
<defs>
<linearGradient id="paint0_linear_12_46" x1="106.5" y1="0" x2="106.5" y2="46" gradientUnits="userSpaceOnUse">
<stop stop-color="#FF6F00"/>
<stop offset="1" stop-color="#FFE4CF"/>
</linearGradient>
</defs>
</svg>
